<svg width="75" height="36" xmlns="http://www.w3.org/2000/svg">
<defs>
<filter x="-27.3%" y="-34.8%" width="157.1%" height="169.6%" filterUnits="objectBoundingBox" id="a">
<feOffset in="SourceAlpha" result="shadowOffsetOuter1"/>
<feGaussianBlur stdDeviation="2" in="shadowOffsetOuter1" result="shadowBlurOuter1"/>
<feColorMatrix values="0 0 0 0 0 0 0 0 0 0 0 0 0 0 0 0 0 0 0.214024257 0" in="shadowBlurOuter1" result="shadowMatrixOuter1"/>
<feMerge><feMergeNode in="shadowMatrixOuter1"/>
<feMergeNode in="SourceGraphic"/>
</feMerge>
</filter>
</defs>
<g fill="none" fill-rule="evenodd">
<g filter="url(#a)" transform="translate(38.762 7)">
<path d="M23.385 0H5.999C2.765 0 .143 2.959.143 6.609v6.374c0 3.65 2.622 6.61 5.856 6.61h4.504l4.124 3.314 4.125-3.315h4.633c3.234 0 5.855-2.958 5.855-6.608V6.608C29.24 2.959 26.62 0 23.385 0" fill="#358BD8"/>
<path d="M23.03 10.296c-.167.97-.553 1.738-1.157 2.302-.604.563-1.34.845-2.207.845a3.225 3.225 0 0 1-1.688-.478 3.503 3.503 0 0 1-1.247-1.303 3.603 3.603 0 0 1-.442-1.768 3.585 3.585 0 0 1 .994-2.495 3.268 3.268 0 0 1 2.397-1.033c.677 0 1.281.182 1.815.545.533.362.966.89 1.297 1.583l-4.378 2.468-.504-.922 3.248-1.844a2.044 2.044 0 0 0-.674-.513 1.925 1.925 0 0 0-.818-.173c-.599 0-1.104.228-1.515.683-.41.455-.616 1.018-.616 1.688 0 .665.206 1.226.62 1.684.413.457.917.686 1.511.686.568 0 1.043-.19 1.427-.572.384-.381.623-.904.719-1.57l1.219.187zM6.353 13.443V9.427c0-.945.244-1.691.73-2.239.488-.548 1.144-.822 1.97-.822.422 0 .811.091 1.169.273.357.182.665.448.925.797.269-.354.58-.62.932-.8.353-.18.74-.27 1.162-.27.817 0 1.47.275 1.959.826.489.55.734 1.295.734 2.235v4.016h-1.21v-4.25c0-.487-.138-.879-.411-1.176-.274-.298-.631-.446-1.072-.446-.44 0-.798.148-1.071.446-.274.297-.41.69-.41 1.176v4.25h-1.211v-4.25c0-.487-.14-.879-.418-1.176-.278-.298-.638-.446-1.078-.446-.446 0-.804.148-1.075.446-.272.297-.407.69-.407 1.176v4.25H6.353z" fill="#FFF"/>
</g>
<path d="M4.085 21v-5.71h1.92v-1.36H.465v1.36h1.9V21h1.72zm7.44 0v-1.37h-2.69v-1.57h2.39v-1.29h-2.39v-1.48h2.69v-1.36h-4.4V21h4.4zm2.66 0l.44-1.29h2.65l.44 1.29h1.82l-2.59-7.02h-1.97L12.385 21h1.8zm2.65-2.59h-1.77l.89-2.6.88 2.6zm6.99 2.65c.9 0 1.645-.238 2.235-.715.59-.477.972-1.115 1.145-1.915h-1.81c-.133.32-.338.573-.615.76-.277.187-.605.28-.985.28-.5 0-.903-.182-1.21-.545-.307-.363-.46-.852-.46-1.465 0-.613.153-1.103.46-1.47.307-.367.71-.55 1.21-.55.38 0 .708.093.985.28.277.187.482.443.615.77h1.81c-.173-.807-.555-1.447-1.145-1.92-.59-.473-1.335-.71-2.235-.71-.687 0-1.29.152-1.81.455-.52.303-.922.728-1.205 1.275-.283.547-.425 1.17-.425 1.87 0 .7.142 1.323.425 1.87.283.547.685.972 1.205 1.275.52.303 1.123.455 1.81.455zm6.45-.06v-2.95h2.68V21h1.72v-7.07h-1.72v2.74h-2.68v-2.74h-1.71V21h1.71z" fill="#358BD8" fill-rule="nonzero"/>
</g>
</svg>