<?xml version="1.0" encoding="UTF-8"?>
<svg xmlns="http://www.w3.org/2000/svg" xmlns:xlink="http://www.w3.org/1999/xlink" width="100pt" height="81pt" viewBox="0 0 100 81" version="1.1">
<g id="surface1">
<path style=" stroke:none;fill-rule:evenodd;fill:rgb(20.392157%,54.509804%,84.705882%);fill-opacity:1;" d="M 21.746094 0.0195312 L 77.984375 0.0195312 C 90.003906 0.0195312 99.746094 9.800781 99.75 21.863281 L 99.75 48.269531 C 99.75 60.335938 90.003906 70.117188 77.984375 70.117188 L 65.238281 70.117188 L 50.210938 81.035156 L 36.175781 70.117188 L 21.746094 70.117188 C 9.722656 70.117188 -0.0234375 60.335938 -0.0234375 48.269531 L -0.0234375 21.863281 C -0.0195312 9.800781 9.726562 0.0195312 21.746094 0.0195312 Z M 21.746094 0.0195312 "/>
<path style=" stroke:none;fill-rule:evenodd;fill:rgb(100%,100%,100%);fill-opacity:1;" d="M 22.464844 46.910156 L 22.464844 33.746094 C 22.316406 31.082031 23.183594 28.457031 24.886719 26.410156 C 26.5625 24.589844 28.953125 23.601562 31.421875 23.71875 C 32.765625 23.703125 34.09375 24.011719 35.300781 24.613281 C 36.515625 25.230469 37.566406 26.121094 38.378906 27.222656 C 39.195312 26.121094 40.253906 25.226562 41.46875 24.597656 C 42.667969 24.003906 43.992188 23.699219 45.328125 23.71875 C 47.785156 23.613281 50.160156 24.605469 51.820312 26.421875 C 53.527344 28.464844 54.398438 31.082031 54.257812 33.746094 L 54.257812 46.910156 L 50.238281 46.910156 L 50.238281 32.980469 C 50.304688 31.566406 49.816406 30.183594 48.878906 29.125 C 46.90625 27.175781 43.738281 27.175781 41.765625 29.125 C 40.828125 30.183594 40.339844 31.566406 40.40625 32.980469 L 40.40625 46.910156 L 36.382812 46.910156 L 36.382812 32.980469 C 36.449219 31.5625 35.949219 30.175781 35 29.125 C 34.066406 28.144531 32.765625 27.613281 31.417969 27.660156 C 30.074219 27.605469 28.773438 28.140625 27.851562 29.125 C 26.917969 30.183594 26.433594 31.566406 26.5 32.980469 L 26.5 46.910156 Z M 78.171875 36.832031 C 77.761719 39.773438 76.378906 42.488281 74.246094 44.542969 C 72.214844 46.425781 69.53125 47.441406 66.765625 47.375 C 65.765625 47.375 64.765625 47.238281 63.800781 46.96875 C 62.828125 46.699219 61.902344 46.296875 61.042969 45.773438 C 56.050781 42.6875 54 36.441406 56.183594 30.980469 C 56.765625 29.546875 57.617188 28.238281 58.6875 27.125 C 60.808594 24.902344 63.746094 23.652344 66.8125 23.667969 C 69 23.632812 71.148438 24.269531 72.964844 25.488281 C 74.878906 26.828125 76.398438 28.660156 77.363281 30.792969 L 62.519531 39.058594 L 60.8125 35.972656 L 71.824219 29.796875 C 71.191406 29.070312 70.414062 28.488281 69.542969 28.078125 C 68.671875 27.6875 67.726562 27.488281 66.773438 27.496094 C 64.808594 27.46875 62.933594 28.304688 61.636719 29.785156 C 58.847656 33.035156 58.851562 37.839844 61.648438 41.082031 C 62.90625 42.476562 64.671875 43.304688 66.546875 43.375 C 68.421875 43.449219 70.246094 42.757812 71.609375 41.464844 C 72.980469 40.035156 73.839844 38.183594 74.042969 36.207031 Z M 78.171875 36.832031 "/>
</g>
</svg>
