<?xml version="1.0" encoding="UTF-8"?>
<svg width="82" height="55">
  <defs>
    <filter id="a">
      <feColorMatrix in="SourceGraphic" values="0 0 0 0 0.721569 0 0 0 0 0.725490 0 0 0 0 0.764706 0 0 0 1.000000 0"/>
    </filter>
  </defs>
  <g fill="none" fill-rule="evenodd">
    <path fill="#727487" fill-opacity=".5" fill-rule="nonzero" d="M81.403 29.754c-.08-.151-.283-.227-.445-.264-.932 0-8.95-.303-8.95-8.999 0-.264-.243-.491-.526-.491-.284 0-.527.227-.527.491 0 8.696-8.017 8.999-8.908 8.999a.479.479 0 00-.324.113c-.081.038-.122.113-.162.151a.527.527 0 000 .492c.08.151.283.264.486.264h.04c.932 0 8.909.303 8.909 8.999 0 .264.243.491.526.491.284 0 .527-.227.527-.491 0-8.658 7.977-8.999 8.909-8.999.202 0 .364-.113.486-.264a.44.44 0 00-.04-.492zm-9.921 6.05c-1.174-3.592-4.05-5.142-6.317-5.823 2.267-.68 5.143-2.23 6.317-5.822 1.174 3.591 4.05 5.142 6.317 5.822-2.268.68-5.143 2.23-6.317 5.822z"/>
    <path fill="#727487" fill-opacity=".3" fill-rule="nonzero" d="M11.01 19.08c.264 0 .49-.25.49-.582 0-.292-.226-.542-.49-.542-.452 0-4.52-.166-4.52-5.415C6.49 12.25 6.264 12 6 12s-.49.25-.49.541c0 5.249-4.068 5.415-4.52 5.415H.952a.525.525 0 00-.452.542c0 .291.226.541.49.541.49 0 4.52.167 4.52 5.415 0 .292.226.541.49.541.226.042.452-.208.452-.5 0-5.248 4.069-5.414 4.52-5.414h.038zm-5.048 2.375c-.602-1.583-1.695-2.457-2.712-2.957 1.092-.5 2.11-1.458 2.712-2.958.603 1.583 1.696 2.458 2.713 2.958-1.093.5-2.11 1.458-2.713 2.957zM69.01 5.95c-.452 0-4.52-.166-4.52-5.409C64.49.25 64.264 0 64 0s-.49.25-.49.541c0 5.243-4.068 5.41-4.52 5.41h-.038a.525.525 0 00-.452.54c0 .292.226.542.49.542.49 0 4.52.166 4.52 5.41 0 .291.226.54.49.54.226.084.452-.166.452-.499 0-5.243 4.069-5.41 4.52-5.41h.038c.264 0 .49-.25.49-.582 0-.291-.226-.541-.49-.541zm-5.048 3.538c-.64-1.581-1.695-2.455-2.712-2.954 1.092-.5 2.11-1.457 2.712-2.955.603 1.581 1.696 2.455 2.713 2.955-1.093.499-2.11 1.456-2.713 2.954z"/>
    <g filter="url(#a)">
      <path fill="#0A2333" d="M50 14.75v32.583H23.875a2 2 0 01-2-2V16.75a2 2 0 012-2H50zM48.125 43.5H26.583a.958.958 0 100 1.917h21.542V43.5zm0-26.833h-21.5a1 1 0 00-1 1v22.916a1 1 0 001 1h21.5V16.667zm-7.5 11.5v1.916H30.333a.958.958 0 110-1.916h10.292zm3.75-3.834v1.917H30.333a.958.958 0 110-1.917h14.042z"/>
    </g>
  </g>
</svg>
