<?xml version="1.0" encoding="UTF-8"?>
<svg width="21px" height="23px" viewBox="0 0 21 23" version="1.1" xmlns="http://www.w3.org/2000/svg" xmlns:xlink="http://www.w3.org/1999/xlink">
    <title>71EFB15E-E0DC-45C4-800C-0300EBE31A3E</title>
        <g id="courses" transform="translate(-45.000000, -91.000000)" fill="currentColor">
            <g id="Side-Nav-New" transform="translate(-1.000000, 0.000000)">
                <g id="Side-Nav">
                    <g id="Group-2" transform="translate(0.500000, 83.000000)">
                        <g id="Nav/Courses-normal" transform="translate(0.500000, 0.000000)">
                            <g id="Group" transform="translate(26.000000, 8.000000)">
                                <g id="Icon/Apps/icon-event-course" transform="translate(19.000000, 0.000000)">
                                    <path d="M20.6666667,0 L20.6666667,22.6666667 L2.66666667,22.6666667 C1.56209717,22.6666667 0.666666667,21.7712362 0.666666667,20.6666667 L0.666666667,2 C0.666666667,0.8954305 1.56209717,2.02906125e-16 2.66666667,0 L20.6666667,0 Z M19.3333333,20 L4,20 C3.63181017,20 3.33333333,20.2984768 3.33333333,20.6666667 C3.33333333,21.0348565 3.63181017,21.3333333 4,21.3333333 L4,21.3333333 L19.3333333,21.3333333 L19.3333333,20 Z M19.3333333,1.33333333 L4.33333333,1.33333333 C3.78104858,1.33333333 3.33333333,1.78104858 3.33333333,2.33333333 L3.33333333,2.33333333 L3.33333333,17.6666667 C3.33333333,18.2189514 3.78104858,18.6666667 4.33333333,18.6666667 L4.33333333,18.6666667 L19.3333333,18.6666667 L19.3333333,1.33333333 Z M14,9.33333333 L14,10.6666667 L6.66666667,10.6666667 C6.29847683,10.6666667 6,10.3681898 6,10 C6,9.63181017 6.29847683,9.33333333 6.66666667,9.33333333 L14,9.33333333 Z M16.6666667,6.66666667 L16.6666667,8 L6.66666667,8 C6.29847683,8 6,7.70152317 6,7.33333333 C6,6.9651435 6.29847683,6.66666667 6.66666667,6.66666667 L16.6666667,6.66666667 Z" id="icon-event-course"></path>
                                </g>
                            </g>
                        </g>
                    </g>
                </g>
            </g>
        </g>
</svg>