<svg width="24" height="24"  xmlns="http://www.w3.org/2000/svg">
<path d="M17.5 8a.5.5 0 0 1 .492.41L18 8.5v9a2.5 2.5 0 0 1-2.336 2.495L15.5 20h-7a2.5 2.5 0 0 1-2.495-2.336L6 17.5v-9a.5.5 0 0 1 .992-.09L7 8.5v9a1.5 1.5 0 0 0 1.356 1.493L8.5 19h7a1.5 1.5 0 0 0 1.493-1.356L17 17.5v-9a.5.5 0 0 1 .5-.5zM10 10a.5.5 0 0 1 .492.41l.008.09v6a.5.5 0 0 1-.992.09L9.5 16.5v-6a.5.5 0 0 1 .5-.5zm4 0a.5.5 0 0 1 .492.41l.008.09v6a.5.5 0 0 1-.992.09l-.008-.09v-6a.5.5 0 0 1 .5-.5zm0-6.5a1.5 1.5 0 0 1 1.493 1.356L15.5 5v1h4a.5.5 0 0 1 .09.992L19.5 7h-15a.5.5 0 0 1-.09-.992L4.5 6h4V5a1.5 1.5 0 0 1 1.356-1.493L10 3.5h4zm0 1h-4a.5.5 0 0 0-.492.41L9.5 5v1h5V5a.5.5 0 0 0-.41-.492L14 4.5z" fill="#0A2333" fill-rule="nonzero"/>
</svg>