<svg xmlns="http://www.w3.org/2000/svg" width="13.577" height="14">
  <path fill="currentColor" d="M11.455 3.818a.424.424 0 01.418.348l.007.076v7.637a2.121 2.121 0 01-1.982 2.117l-.14.004H3.82a2.121 2.121 0 01-2.117-1.982l-.004-.14V4.243a.424.424 0 01.841-.076l.007.076v7.637a1.273 1.273 0 001.15 1.267l.123.006h5.94A1.273 1.273 0 0011.024 12l.006-.122V4.242a.424.424 0 01.424-.424zM5.092 5.515a.424.424 0 01.417.348l.007.076v5.091a.424.424 0 01-.842.077l-.007-.077V5.94a.424.424 0 01.425-.425zm3.394 0a.424.424 0 01.417.348l.007.076v5.091a.424.424 0 01-.842.077l-.007-.077V5.94a.424.424 0 01.425-.425zm0-5.515a1.273 1.273 0 011.266 1.15l.006.123v.848h3.394a.424.424 0 01.077.842l-.077.007H.425a.424.424 0 01-.076-.842l.076-.007h3.394v-.848A1.273 1.273 0 014.969.006L5.093 0zm0 .848H5.092a.424.424 0 00-.418.348l-.007.077v.848H8.91v-.848a.424.424 0 00-.348-.418z"/>
</svg>
