
<svg width="15" height="18" viewBox="0 0 15 18" xmlns="http://www.w3.org/2000/svg" xmlns:xlink="http://www.w3.org/1999/xlink">
    <path fill="currentColor" d="M15 5h-1v11c0 .96488-.99881 2-2 2H2.73679C2 18 1 16.96488 1 16V5H0l.00545-.93736C0 3 1 2 2 2h1c0-1 1-2 2-2h5c1 0 2 1 2 2h1c1 0 2 1 1.99431 2.06264L15 5zm-3 12c.5 0 1-.5 1-1V5H2v11c0 .48272.28738 1 .73679 1H12zM5 1c-.5 0-1 .5-1 1h7c0-.5-.5-1-1-1H5zm5.5 6c.27614 0 .5.22386.5.5v6c0 .27614-.22386.5-.5.5s-.5-.22386-.5-.5v-6c0-.27614.22386-.5.5-.5zm-3 0c.27614 0 .5.22386.5.5v6c0 .27614-.22386.5-.5.5s-.5-.22386-.5-.5v-6c0-.27614.22386-.5.5-.5zm-3 0c.27614 0 .5.22386.5.5v6c0 .27614-.22386.5-.5.5s-.5-.22386-.5-.5v-6c0-.27614.22386-.5.5-.5zM13 3c.5 0 1 .5 1 1H1c0-.5.5-1 1-1z" id="a"/>
</svg>
