<svg width="306" height="166" xmlns="http://www.w3.org/2000/svg" xmlns:xlink="http://www.w3.org/1999/xlink">
<defs>
<path d="M6.106 31h81.639c3.697 0 6.691-3.305 6.203-7.077-.177-1.367-.805-2.754-2.201-3.976-2.793-2.447-6.09-2.201-8.49-1.485-1.557.465-3.142-.526-3.47-2.16-.549-2.728-2.285-6.34-7.378-8.463-4.957-2.066-8.091 1.09-9.905 4.33-.596 1.067-2.185.907-2.545-.266C58.39 6.785 52.913 0 34.926 0c-22.903 0-20.33 12.545-18.284 17.737.35.89-.411 1.821-1.324 1.62-3.528-.777-10.083-1.785-13.022.59-.103.083-.204.17-.302.258C-2.14 23.942.604 31 6.106 31"/>
<path d="M92.543 20.919C95.925 35.833 61.25 37.75 46.962 37.913a55.301 55.301 0 0 1-11.786-1.136C23.093 34.291-3.356 27.764.353 18.889c4.786-11.45 19.163-3.466 19.163-3.466s-1.804-8.644 22.66-14.354c24.463-5.71 24.366 13.316 24.366 13.316s21.75-12.203 26 6.534"/>
<path d="M51.677 12.705l-3.855-6.966L0 0l37.534 13.879 14.143-1.174"/>
<path d="M1.385 6.778L0 0l30.508 7.465-29.123-.687"/>
<path d="M26.847 0L0 4.91l2.683 10.02L26.847 0"/>
<path d="M70.21 67.145c.47.393.707.904.707 1.532 0 .629-.216 1.16-.649 1.591a2.163 2.163 0 0 1-1.59.649c-.63 0-1.14-.236-1.533-.707L48.17 53.59c-2.514 1.965-5.343 3.497-8.486 4.597a29.054 29.054 0 0 1-9.664 1.65c-5.422 0-10.431-1.336-15.027-4.007-4.597-2.672-8.231-6.306-10.902-10.902C1.419 40.332.083 35.343.083 29.96c0-5.383 1.336-10.372 4.008-14.968 2.671-4.597 6.305-8.231 10.902-10.902C19.589 1.419 24.578.083 29.96.083c5.382 0 10.371 1.336 14.968 4.008 4.596 2.671 8.23 6.305 10.902 10.902 2.671 4.596 4.007 9.605 4.007 15.027 0 3.928-.727 7.66-2.18 11.196a29.524 29.524 0 0 1-6.188 9.429l18.74 16.5zM4.562 30.02c0 4.557 1.14 8.78 3.418 12.67 2.279 3.889 5.362 6.973 9.252 9.251 3.89 2.279 8.132 3.418 12.729 3.418 4.596 0 8.84-1.139 12.728-3.418 3.89-2.278 6.974-5.362 9.252-9.252 2.279-3.889 3.418-8.132 3.418-12.728 0-4.597-1.139-8.84-3.418-12.73-2.278-3.889-5.362-6.972-9.252-9.251C38.8 5.7 34.557 4.562 29.961 4.562c-4.597 0-8.84 1.14-12.73 3.418-3.889 2.279-6.972 5.362-9.251 9.252-2.279 3.89-3.418 8.152-3.418 12.788z"/>
<filter id="empty-search-a">
<feColorMatrix in="SourceGraphic" values="0 0 0 0 0.776471 0 0 0 0 0.776471 0 0 0 0 0.776471 0 0 0 1.000000 0"/>
</filter>
</defs>
<g fill="none" fill-rule="evenodd">
<path fill="#EBEBEB" transform="matrix(-1 0 0 1 306 4)" d="M6.106 31h81.639c3.697 0 6.691-3.305 6.203-7.077-.177-1.367-.805-2.754-2.201-3.976-2.793-2.447-6.09-2.201-8.49-1.485-1.557.465-3.142-.526-3.47-2.16-.549-2.728-2.285-6.34-7.378-8.463-4.957-2.066-8.091 1.09-9.905 4.33-.596 1.067-2.185.907-2.545-.266C58.39 6.785 52.913 0 34.926 0c-22.903 0-20.33 12.545-18.284 17.737.35.89-.411 1.821-1.324 1.62-3.528-.777-10.083-1.785-13.022.59-.103.083-.204.17-.302.258C-2.14 23.942.604 31 6.106 31"/>
<path fill="#EBEBEB" transform="translate(0 60)" d="M92.543 20.919C95.925 35.833 61.25 37.75 46.962 37.913a55.301 55.301 0 0 1-11.786-1.136C23.093 34.291-3.356 27.764.353 18.889c4.786-11.45 19.163-3.466 19.163-3.466s-1.804-8.644 22.66-14.354c24.463-5.71 24.366 13.316 24.366 13.316s21.75-12.203 26 6.534"/>
<path d="M130.202 3.536a.492.492 0 0 0-.35-.014l.076-.017L84.582 7.39a.5.5 0 0 0-.42.687l.038.075 1.5 2.419a.5.5 0 0 0 .496.231l37.621-5.41-36.82 11.425a.5.5 0 0 0-.218.817l.068.061.03.021 4.194 5.511a.5.5 0 0 0 .536.178l.082-.032 38.512-18.913a.487.487 0 0 0 .293-.546l-.005-.021a.481.481 0 0 0-.267-.35zm-6.167 2.837L91.618 22.295l-3.611-4.744 36.028-11.178zm-11.365-.386l-26.293 3.78-.898-1.449 27.191-2.331z" fill="#D7D7D7" fill-rule="nonzero"/>
<g transform="matrix(-1 0 0 1 130 4)">
<mask id="empty-search-b" fill="#fff">
<path d="M51.677 12.705l-3.855-6.966L0 0l37.534 13.879 14.143-1.174"/>
</mask>
<path mask="url(#d)" d="M51.677 12.705l-3.855-6.966L0 0l37.534 13.879 14.143-1.174"/>
</g>
<g fill="#D7D7D7">
<path d="M19.892 133.953a33.982 33.982 0 0 0 3.254-3.458.628.628 0 0 1 .908-.074c.268.24.302.664.071.947a35.433 35.433 0 0 1-4.703 4.752.629.629 0 0 1-.904-.103.69.69 0 0 1 .1-.942c.432-.363.857-.738 1.274-1.122M63.85 16.972c1.912-.565 3.924-1.09 6.155-1.602.34-.078.669.167.743.549.069.381-.15.754-.49.833-2.207.507-4.2 1.026-6.089 1.584a.562.562 0 0 1-.315.001.667.667 0 0 1-.45-.503c-.09-.377.11-.763.445-.862M54.966 21.346a.58.58 0 0 1-.393-.327.551.551 0 0 1 .315-.729 65.871 65.871 0 0 1 5.526-1.905.584.584 0 0 1 .728.367.552.552 0 0 1-.383.698 64.857 64.857 0 0 0-5.424 1.87.602.602 0 0 1-.37.026M28.2 122.379a.647.647 0 0 1 .855-.323.619.619 0 0 1 .333.828 34.654 34.654 0 0 1-3.186 5.598.659.659 0 0 1-.901.168.615.615 0 0 1-.172-.872 33.743 33.743 0 0 0 3.072-5.399M29.953 119.718c-.384-.105-.596-.463-.476-.8a29.981 29.981 0 0 0 1.476-6.117c.045-.35.402-.6.8-.56.387.041.684.356.637.706a30.407 30.407 0 0 1-.98 4.648 29.89 29.89 0 0 1-.552 1.703c-.114.326-.498.513-.87.428a.351.351 0 0 1-.035-.008M31.845 109.232a.468.468 0 0 1-.133-.02c-.237-.07-.412-.318-.41-.611a49.308 49.308 0 0 0-.377-6.164c-.044-.344.165-.661.464-.71.297-.046.575.194.614.536.275 2.25.4 4.326.391 6.345-.002.346-.248.626-.549.624M27.199 52.996a47.779 47.779 0 0 0-1.582 6.14c-.062.349-.414.58-.781.52l-.051-.011c-.337-.083-.558-.4-.496-.732a48.072 48.072 0 0 1 1.621-6.298.648.648 0 0 1 .847-.42c.354.105.554.463.442.8M25.013 62.605c-.199 2.06-.26 4.137-.18 6.172a.626.626 0 0 1-.783.631.628.628 0 0 1-.473-.58 46.422 46.422 0 0 1 .184-6.343.629.629 0 0 1 1.252.12M30.848 43.398a59.18 59.18 0 0 0-2.477 6.074c-.11.322-.411.493-.696.409a.736.736 0 0 1-.072-.027c-.303-.138-.452-.533-.331-.882a61.33 61.33 0 0 1 2.536-6.224c.156-.33.515-.455.802-.272.287.18.393.592.238.922M38.64 32.445a.649.649 0 0 1-.89.014.587.587 0 0 1-.015-.853 49.138 49.138 0 0 1 4.707-4.103.647.647 0 0 1 .883.095c.216.26.17.64-.1.848a47.647 47.647 0 0 0-4.586 4M28.239 89.682a.637.637 0 0 1-.783-.448l-.218-.787c-.498-1.812-.998-3.626-1.463-5.445a.647.647 0 0 1 .458-.786.638.638 0 0 1 .777.463c.463 1.812.959 3.618 1.455 5.422l.217.787a.645.645 0 0 1-.443.794M32.86 40.581a.645.645 0 0 1-.904.202.685.685 0 0 1-.196-.929 55.829 55.829 0 0 1 3.906-5.482.645.645 0 0 1 .921-.087.688.688 0 0 1 .083.947 53.864 53.864 0 0 0-3.81 5.35M29.086 91.98c.278-.09.555.112.627.455.518 2.43.897 4.421 1.196 6.267.056.347-.124.684-.403.754a.407.407 0 0 1-.228-.007c-.185-.06-.335-.245-.376-.493-.293-1.82-.667-3.788-1.18-6.193-.072-.342.092-.692.364-.783M15.94 137.125a.603.603 0 0 1 .86.191.669.669 0 0 1-.182.901c-1.647 1.137-3.435 2.198-5.465 3.242a.582.582 0 0 1-.427.045.62.62 0 0 1-.401-.344.667.667 0 0 1 .284-.874 48.693 48.693 0 0 0 5.332-3.16M24.797 72.437c.324-.04.621.203.66.552a69.44 69.44 0 0 0 1.02 6.182c.072.342-.13.68-.45.756a.547.547 0 0 1-.275-.004.611.611 0 0 1-.43-.477c-.474-2.283-.814-4.344-1.039-6.302-.04-.347.19-.664.514-.707M49.468 23.23c.642-.364 1.29-.714 1.946-1.049a.616.616 0 0 1 .835.29.65.65 0 0 1-.281.863c-.64.326-1.272.667-1.899 1.022a43.902 43.902 0 0 0-3.421 2.154.608.608 0 0 1-.505.09.616.616 0 0 1-.36-.262.654.654 0 0 1 .167-.893 45.254 45.254 0 0 1 3.518-2.215"/>
</g>
<g>
<path d="M268.505 77.965l-29.787.679c-.567.013-.66.785-.174.965l.097.027 23.605 4.241-1.883 1.68a.5.5 0 0 0 .283.87l.086.001 12.204-.906.057-.008.083-.023.031-.013.046-.024.03-.02.04-.03.06-.06.049-.071.016-.03.02-.05.01-.03.014-.057.004-.03.001-.09-.007-.057-.008-.032-.013-.043a.49.49 0 0 0-.02-.385l-.042-.071-4.382-6.221-.058-.069-.068-.056-.021-.012-.019-.013-.035-.017-.044-.018-.085-.021-.021-.002-.014-.002-.055-.002zm-5.007 6.137l1.68.303 2.578.261.982.165-6.61.491 1.37-1.22zm4.764-5.132l3.597 5.108-3.94-.399-4.35-.73a.5.5 0 0 0-.344.066l-.026.019-19.492-3.504 24.555-.56z" fill="#D7D7D7" fill-rule="nonzero"/>
<g transform="matrix(-1 0 0 1 269.238 71)">
<mask id="empty-search-c" fill="#fff">
<path d="M1.385 6.778L0 0l30.508 7.465-29.123-.687"/>
</mask>
<path mask="url(#f)" d="M1.385 6.778L0 0l30.508 7.465-29.123-.687"/>
</g>
<g transform="matrix(-1 0 0 1 265.577 79.709)">
<mask id="empty-search-d" fill="#fff">
<path d="M26.847 0L0 4.91l2.683 10.02L26.847 0"/>
</mask>
<path mask="url(#h)" d="M26.847 0L0 4.91l2.683 10.02L26.847 0"/>
</g>
<path d="M257.207 109.619a.677.677 0 0 0 .245-.358c.106-.359-.072-.745-.398-.863a9.15 9.15 0 0 0-6.569.171c-.318.138-.48.533-.358.885.122.353.481.529.802.395 1.772-.747 3.918-.803 5.74-.15a.571.571 0 0 0 .538-.08zm-9.57 8.26a.617.617 0 0 0 .262-.76c-.602-1.476-.63-2.896-.085-4.218a5.12 5.12 0 0 1 .785-1.304.61.61 0 0 0-.128-.897.726.726 0 0 0-.966.118 6.397 6.397 0 0 0-.978 1.624c-.661 1.602-.632 3.377.084 5.132.134.33.533.496.888.371a.883.883 0 0 0 .138-.066zm29.074-18.213a.684.684 0 0 0 .211-.829 22.82 22.82 0 0 0-1.432-2.7 21.045 21.045 0 0 0-2.162-2.898.578.578 0 0 0-.863-.022.69.69 0 0 0-.02.927c.74.831 1.423 1.747 2.028 2.72.5.806.954 1.663 1.349 2.54.145.328.51.466.814.31a.725.725 0 0 0 .075-.048zm-12.092 16.197a.608.608 0 0 0 .127-.878c-1.54-1.914-2.915-3.283-4.325-4.306a.575.575 0 0 0-.813.141.607.607 0 0 0 .138.834c1.324.961 2.627 2.262 4.1 4.09.192.241.527.288.773.119zm-10.086 8.762a.625.625 0 0 0 .223-.303c.113-.326-.041-.689-.344-.81-.461-.183-.914-.392-1.347-.623a11.423 11.423 0 0 1-3.307-2.675.556.556 0 0 0-.827-.039.66.66 0 0 0-.036.887 12.633 12.633 0 0 0 3.653 2.954c.467.249.958.477 1.457.675a.548.548 0 0 0 .528-.066zm24.15-15.51a.608.608 0 0 0 .286-.48c.123-2.112-.12-4.259-.721-6.378a.65.65 0 0 0-.79-.435.616.616 0 0 0-.452.76c.565 1.99.792 4.005.677 5.983a.63.63 0 0 0 .607.654.671.671 0 0 0 .393-.104zm-14.75 15.667c.202-.166.313-.476.261-.789-.068-.414-.392-.682-.725-.595-2.012.514-4.019.615-5.965.295-.335-.057-.644.238-.688.66-.044.417.192.801.528.856 2.082.342 4.226.235 6.372-.313a.563.563 0 0 0 .217-.114zm11.326-6.898a.656.656 0 0 0 .148-.137 16.889 16.889 0 0 0 2.056-3.406c.334-.743.618-1.524.842-2.319a.614.614 0 0 0-.432-.756.623.623 0 0 0-.765.426c-.208.737-.47 1.46-.78 2.15a15.605 15.605 0 0 1-1.906 3.156.61.61 0 0 0 .114.862.63.63 0 0 0 .723.024zm-4.359 5.835a.634.634 0 0 0 .181-.873l-.255-.39a20.48 20.48 0 0 0 2.572-1.864.636.636 0 0 0-.825-.967 19.308 19.308 0 0 1-2.453 1.774c-.83-1.22-1.736-2.48-2.753-3.835a.637.637 0 0 0-.889-.125.632.632 0 0 0-.127.887c.981 1.307 1.857 2.526 2.66 3.7-.562.297-1.14.567-1.73.808a.636.636 0 0 0 .481 1.175c.67-.274 1.324-.582 1.96-.92.098.148.196.296.293.447a.634.634 0 0 0 .885.183zm4.457 8.328a.595.595 0 0 0 .236-.73 44.6 44.6 0 0 0-2.81-5.604.645.645 0 0 0-.86-.229.6.6 0 0 0-.24.828 43.531 43.531 0 0 1 2.736 5.453.639.639 0 0 0 .938.282zm1.969 10.113c.208-.117.34-.32.328-.546l-.02-.3a25.706 25.706 0 0 0-1.221-6.01c-.108-.332-.514-.526-.906-.435-.393.088-.623.433-.515.763.633 1.935 1.028 3.874 1.171 5.76l.019.28c.019.343.364.606.77.592a.839.839 0 0 0 .374-.104zm-2.125 9.439a.602.602 0 0 0 .213-.279 25.478 25.478 0 0 0 1.564-6.32c.04-.347-.187-.662-.507-.707-.32-.041-.612.203-.652.55a24.13 24.13 0 0 1-1.48 5.985c-.125.322.014.693.311.828a.542.542 0 0 0 .551-.057zm-9.128 8.246c-.874.366-1.789.635-2.718.797a.595.595 0 0 0 .204 1.172 13.958 13.958 0 0 0 2.973-.87.596.596 0 0 0-.458-1.1zm7.092-6.497c-1.135 1.846-2.484 3.4-4.01 4.621a.665.665 0 0 0-.116.902c.197.272.56.332.827.147.011-.009.022-.015.032-.025 1.64-1.31 3.085-2.974 4.297-4.945a.663.663 0 0 0-.183-.89.598.598 0 0 0-.847.19zm-6.215-63.32a.6.6 0 0 0 .325.802c.922.389 1.819.867 2.666 1.423a.651.651 0 0 0 .88-.16.593.593 0 0 0-.167-.845 17.98 17.98 0 0 0-2.87-1.534.64.64 0 0 0-.834.314z" fill="#D7D7D7"/>
</g>
<g transform="translate(0 3)">
<path fill="#D7D7D7" transform="translate(129 39)" d="M70.21 67.145c.47.393.707.904.707 1.532 0 .629-.216 1.16-.649 1.591a2.163 2.163 0 0 1-1.59.649c-.63 0-1.14-.236-1.533-.707L48.17 53.59c-2.514 1.965-5.343 3.497-8.486 4.597a29.054 29.054 0 0 1-9.664 1.65c-5.422 0-10.431-1.336-15.027-4.007-4.597-2.672-8.231-6.306-10.902-10.902C1.419 40.332.083 35.343.083 29.96c0-5.383 1.336-10.372 4.008-14.968 2.671-4.597 6.305-8.231 10.902-10.902C19.589 1.419 24.578.083 29.96.083c5.382 0 10.371 1.336 14.968 4.008 4.596 2.671 8.23 6.305 10.902 10.902 2.671 4.596 4.007 9.605 4.007 15.027 0 3.928-.727 7.66-2.18 11.196a29.524 29.524 0 0 1-6.188 9.429l18.74 16.5zM4.562 30.02c0 4.557 1.14 8.78 3.418 12.67 2.279 3.889 5.362 6.973 9.252 9.251 3.89 2.279 8.132 3.418 12.729 3.418 4.596 0 8.84-1.139 12.728-3.418 3.89-2.278 6.974-5.362 9.252-9.252 2.279-3.889 3.418-8.132 3.418-12.728 0-4.597-1.139-8.84-3.418-12.73-2.278-3.889-5.362-6.972-9.252-9.251C38.8 5.7 34.557 4.562 29.961 4.562c-4.597 0-8.84 1.14-12.73 3.418-3.889 2.279-6.972 5.362-9.251 9.252-2.279 3.89-3.418 8.152-3.418 12.788z" />
</g>
</g>
</svg>
