<?xml version="1.0" encoding="UTF-8"?>
<svg width="61" height="30">
  <defs>
    <filter id="a">
      <feColorMatrix in="SourceGraphic" values="0 0 0 0 0.721569 0 0 0 0 0.725490 0 0 0 0 0.764706 0 0 0 1.000000 0"/>
    </filter>
  </defs>
  <g fill="none" fill-rule="evenodd">
    <g filter="url(#a)" transform="translate(0 1)">
      <g fill="#0A2333">
        <path d="M58.902 0v29H35.125a2 2 0 01-2-2V2a2 2 0 012-2h23.777zm-1.718 25.588h-19.77a.853.853 0 000 1.706h19.77v-1.706zm0-23.882H37.562a1 1 0 00-1 1v20.176a1 1 0 001 1h19.622V1.706z"/>
        <path fill-rule="nonzero" d="M51.185 17.722v-1.896h-5.011V6.268h-2.36v11.454z"/>
      </g>
    </g>
    <g fill="#727487" fill-rule="nonzero">
      <path fill-opacity=".5" d="M24.738 15.803c-.063-.12-.22-.181-.347-.211-.725 0-6.966-.242-6.966-7.199a.41.41 0 00-.41-.393.41.41 0 00-.41.393c0 6.957-6.242 7.199-6.935 7.199-.095 0-.19.03-.252.09-.063.03-.095.091-.126.121a.432.432 0 000 .394.44.44 0 00.378.211H9.7c.725 0 6.935.242 6.935 7.199 0 .212.19.393.41.393a.41.41 0 00.41-.393c0-6.926 6.21-7.199 6.935-7.199.158 0 .284-.09.379-.211a.36.36 0 00-.032-.394zm-7.723 4.84c-.914-2.874-3.153-4.114-4.918-4.658 1.765-.545 4.004-1.785 4.918-4.658.914 2.873 3.152 4.113 4.917 4.658-1.765.544-4.003 1.784-4.917 4.658z"/>
      <path fill-opacity=".3" d="M11.774 6.447c.21 0 .39-.192.39-.449 0-.224-.18-.416-.39-.416-.36 0-3.6-.128-3.6-4.165 0-.225-.18-.417-.39-.417-.21 0-.39.192-.39.417 0 4.037-3.238 4.165-3.598 4.165h-.03a.408.408 0 00-.36.416c0 .225.18.417.39.417.39 0 3.599.128 3.599 4.165 0 .224.18.416.39.416.18.033.36-.16.36-.384 0-4.037 3.239-4.165 3.599-4.165h.03zm-4.02 1.826c-.48-1.217-1.349-1.89-2.159-2.275.87-.384 1.68-1.121 2.16-2.275.48 1.218 1.35 1.89 2.16 2.275-.87.385-1.68 1.122-2.16 2.275z"/>
      <path fill-opacity=".2" d="M8.854 19.578c-.36 0-3.599-.128-3.599-4.162 0-.224-.18-.416-.39-.416-.21 0-.39.192-.39.416 0 4.034-3.239 4.162-3.599 4.162h-.03a.408.408 0 00-.36.416c0 .224.18.416.39.416.39 0 3.6.128 3.6 4.161 0 .225.18.417.39.417.18.064.36-.128.36-.385 0-4.033 3.238-4.161 3.598-4.161h.03c.21 0 .39-.192.39-.448 0-.224-.18-.416-.39-.416zm-4.019 2.72a4.257 4.257 0 00-2.159-2.272c.87-.384 1.68-1.12 2.16-2.273.48 1.216 1.349 1.889 2.159 2.273-.87.384-1.68 1.12-2.16 2.273z"/>
    </g>
  </g>
</svg>
