<svg xmlns="http://www.w3.org/2000/svg" width="85" height="50">
  <g fill="none" fill-rule="evenodd">
    <path fill="#C6C6C6" d="M83.468 31.666c-.083-.156-.29-.234-.457-.273-.955 0-9.177-.31-9.177-9.264 0-.273-.25-.506-.54-.506-.29 0-.54.233-.54.506 0 8.953-8.223 9.264-9.136 9.264a.49.49 0 00-.332.117c-.084.04-.125.117-.167.156a.545.545 0 000 .506c.083.156.291.273.499.273h.041c.955 0 9.137.311 9.137 9.264 0 .273.249.506.54.506.29 0 .54-.233.54-.506 0-8.914 8.18-9.264 9.135-9.264.208 0 .374-.117.499-.273a.454.454 0 00-.042-.506zm-10.174 6.228C72.09 34.196 69.14 32.6 66.815 31.9c2.326-.701 5.275-2.297 6.479-5.995 1.204 3.698 4.153 5.294 6.478 5.995-2.325.7-5.274 2.296-6.478 5.994zM11.279 20.676c.27 0 .502-.257.502-.6 0-.3-.232-.558-.502-.558-.464 0-4.636-.171-4.636-5.575 0-.3-.232-.558-.503-.558-.27 0-.502.258-.502.558 0 5.404-4.172 5.575-4.636 5.575H.964a.54.54 0 00-.464.558c0 .3.232.557.502.557.502 0 4.636.172 4.636 5.576 0 .3.232.557.502.557.232.043.464-.214.464-.515 0-5.403 4.172-5.575 4.636-5.575h.039zm-5.177 2.445c-.618-1.63-1.739-2.53-2.782-3.045 1.12-.515 2.164-1.501 2.782-3.045.618 1.63 1.738 2.53 2.781 3.045-1.12.514-2.163 1.5-2.781 3.045zM70.76 7.157c-.464 0-4.637-.171-4.637-5.57 0-.3-.232-.557-.502-.557s-.502.257-.502.557c0 5.399-4.173 5.57-4.636 5.57h-.039a.54.54 0 00-.463.557c0 .3.231.557.502.557.502 0 4.636.171 4.636 5.57 0 .3.232.557.502.557.232.086.464-.171.464-.514 0-5.399 4.172-5.57 4.636-5.57h.038c.27 0 .502-.257.502-.6 0-.3-.231-.557-.502-.557zm-5.178 3.642c-.656-1.628-1.738-2.528-2.781-3.042 1.12-.514 2.163-1.5 2.781-3.042.618 1.628 1.739 2.528 2.782 3.042-1.12.514-2.164 1.5-2.782 3.042z"/>
    <g stroke="#8D8D8D">
      <path stroke-linejoin="round" d="M24.82 14.526V39.75a3 3 0 003 3h23.835a1 1 0 001-1V18.662a1 1 0 00-1-1H28.726a4 4 0 01-3.883-3.042l-.023-.094h0z"/>
      <path stroke-linejoin="round" d="M29.215 17.743h4.395v14.709l-2.198-3.677-2.197 3.677z"/>
      <path stroke-linecap="round" d="M52.655 10.388h-23.26c-3.05 0-4.575 1.115-4.575 3.343 0 2.675 1.525 4.012 4.575 4.012H51.13m-21.915-3.678h21.19"/>
    </g>
    <g fill="#8D8D8D">
      <path d="M52.655 9.653a.735.735 0 01.132 1.46l-.132.01h-23.26c-2.687 0-3.843.845-3.843 2.608 0 .432.064.822.182 1.17l.061.165a3.38 3.38 0 002.801 1.854l.214.006h22.38c1.161 0 2.112.904 2.192 2.05l.006.157v22.145c0 1.165-.9 2.12-2.04 2.2l-.158.006H29.215c-2.76 0-5.01-2.188-5.123-4.93l-.005-.218v-23.81c0-.063.007-.122.019-.178a9.636 9.636 0 01-.019-.617c0-2.601 1.766-3.981 4.96-4.073l.348-.005h23.26zm-27.103 7.605v21.078a3.671 3.671 0 003.468 3.672l.195.005H51.19a.734.734 0 00.726-.636l.007-.1V19.134a.736.736 0 00-.401-.656h-17.18v13.975c0 .71-.887.991-1.302.464l-.058-.086-1.57-2.627-1.57 2.627c-.357.6-1.24.398-1.349-.244l-.01-.134V18.386a4.817 4.817 0 01-2.333-.788 4.615 4.615 0 01-.598-.34zm7.325 1.22h-2.93v11.318l.837-1.4a.731.731 0 011.177-.109l.08.11.836 1.4V18.478zm17.528-5.148a.735.735 0 01.133 1.459l-.133.012h-21.19a.735.735 0 01-.132-1.46l.132-.01h21.19z"/>
    </g>
  </g>
</svg>