<svg width="432" height="172" xmlns="http://www.w3.org/2000/svg" xmlns:xlink="http://www.w3.org/1999/xlink">
<defs>
<circle id="empty-error" cx="45.5" cy="45.5" r="45.5"/>
</defs>
<g fill="none" fill-rule="evenodd">
<path d="M282.828 62H420.92c6.254 0 11.318-5.438 10.491-11.643-.298-2.25-1.361-4.53-3.722-6.541-4.725-4.026-10.301-3.622-14.36-2.443a4.65 4.65 0 0 1-5.87-3.554c-.929-4.487-3.865-10.428-12.48-13.923-8.385-3.4-13.686 1.792-16.754 7.125-1.01 1.755-3.696 1.491-4.305-.439C371.263 22.162 362.002 11 331.577 11c-38.74 0-34.388 20.638-30.928 29.18.593 1.465-.695 2.996-2.24 2.665-5.967-1.277-17.054-2.936-22.025.97-.175.138-.345.28-.51.425C268.88 50.388 273.52 62 282.827 62M83.303 71.655c2.88 12.587-26.646 14.205-38.813 14.342a47.5 47.5 0 0 1-10.037-.959C24.164 82.94 1.642 77.431 4.801 69.942c4.075-9.664 16.318-2.926 16.318-2.926s-1.537-7.295 19.295-12.114c20.831-4.819 20.749 11.239 20.749 11.239s18.522-10.3 22.14 5.514" fill="#EBEBEB"/>
<g transform="translate(63.5 30)">
<circle fill="#FFF" cx="32" cy="32" r="32"/>
<path d="M32 0c17.673 0 32 14.327 32 32 0 17.673-14.327 32-32 32C14.327 64 0 49.673 0 32 0 14.327 14.327 0 32 0zm0 2C15.431 2 2 15.431 2 32c0 16.569 13.431 30 30 30 16.569 0 30-13.431 30-30C62 15.431 48.569 2 32 2z" fill="#C6C6C6" fill-rule="nonzero"/>
<path d="M40 6a8 8 0 1 1 0 16 8 8 0 0 1 0-16zm0 2a6 6 0 1 0 0 12 6 6 0 0 0 0-12zM15 25a5 5 0 1 1 0 10 5 5 0 0 1 0-10zm0 2a3 3 0 1 0 0 6 3 3 0 0 0 0-6zM43 35a5 5 0 1 1 0 10 5 5 0 0 1 0-10zm0 2a3 3 0 1 0 0 6 3 3 0 0 0 0-6zM22.5 51a2.5 2.5 0 1 1 0 5 2.5 2.5 0 0 1 0-5zm0 2a.5.5 0 1 0 0 1 .5.5 0 0 0 0-1z" fill="#C6C6C6" fill-rule="nonzero"/>
</g>
<g transform="translate(230.5 78)">
<mask id="b" fill="#fff">
<circle cx="45.5" cy="45.5" r="45.5"/>
</mask>
<circle fill="#FFF"  cx="45.5" cy="45.5" r="45.5"/>
<path d="M17.93 66.087l.116.35c2.542 7.824 8.329 9.912 17.898 6.287l.298-.116.233-.14c9.691-5.778 16.685-3.11 20.341 7.745l.117.353c3.198 9.843 10.505 10.115 22.853.43a1 1 0 1 1 1.234 1.574c-13.154 10.317-22.081 10.093-25.876-1.045l-.113-.34c-3.228-9.936-8.851-12.18-17.53-7l-.297.18-.158.077c-10.657 4.16-17.77 1.795-20.797-7.072l-.105-.316C13.537 59.03 7.155 55.805-3.351 57.33a1 1 0 0 1-.402-1.956l.114-.024c11.258-1.633 18.56 1.962 21.568 10.737zm5.089-20.308l.092.356c1.99 7.984 7.617 10.47 17.416 7.52l.305-.093.242-.124c10.07-5.088 16.862-1.938 19.752 9.145l.091.36c2.526 10.13 9.507 11.709 21.788 4.637a1 1 0 1 1 .998 1.734c-13.173 7.584-21.658 5.77-24.638-5.54l-.088-.347c-2.527-10.136-7.98-12.766-16.999-8.205l-.309.158-.163.068c-10.922 3.406-17.852.55-20.253-8.506l-.083-.323c-2.041-8.186-8.182-11.848-18.77-11.06a1 1 0 0 1-.264-1.98l.116-.015C13.596 32.72 20.63 36.815 23.02 45.78zm8.79-19.236l.09.348c1.844 7.398 7.196 9.676 16.594 6.866l.314-.096.24-.121c9.706-4.822 16.229-1.91 18.942 8.467l.089.349c2.343 9.397 9.005 10.821 20.826 4.136a1 1 0 0 1 .985 1.741c-12.709 7.187-20.87 5.541-23.669-5.07l-.083-.324c-2.346-9.41-7.529-11.82-16.197-7.51l-.307.156-.159.064c-10.516 3.26-17.175.63-19.435-7.861l-.08-.314c-1.895-7.598-7.74-10.967-17.892-10.161a1 1 0 0 1-.274-1.978l.116-.016c10.904-.865 17.652 2.927 19.9 11.324zm6.758-17.204l.09.348c1.845 7.398 7.196 9.676 16.595 6.867l.31-.095.244-.123c9.705-4.821 16.228-1.91 18.941 8.467l.09.349c2.342 9.397 9.004 10.821 20.825 4.137a1 1 0 0 1 .985 1.74c-12.708 7.187-20.87 5.542-23.668-5.069l-.083-.324c-2.347-9.41-7.53-11.821-16.197-7.51l-.308.155-.158.065c-10.516 3.26-17.176.628-19.436-7.862l-.08-.313C34.821 2.572 28.976-.797 18.824.009a1 1 0 0 1-.274-1.978l.116-.016C29.57-2.85 36.319.942 38.567 9.34z" fill="#E9E9E9" fill-rule="nonzero" mask="url(#b)"/>
</g>
<path d="M276 78c25.129 0 45.5 20.371 45.5 45.5S301.129 169 276 169s-45.5-20.371-45.5-45.5S250.871 78 276 78zm0 2c-24.024 0-43.5 19.476-43.5 43.5S251.976 167 276 167s43.5-19.476 43.5-43.5S300.024 80 276 80z" fill="#C6C6C6" fill-rule="nonzero"/>
<path d="M224.985 106.912c-4.343-9.464.845-13.395 14.21-11.373a1 1 0 0 1-.299 1.978l-.749-.11c-11.43-1.594-14.789 1.164-11.345 8.67 2.954 6.438 15.842 16.18 31.932 23.644 19.01 8.818 39.7 13.46 58.178 12.026l.838-.122c13.42-2.059 14.238-6.814 2.735-15.767a1 1 0 1 1 1.229-1.578c13.098 10.194 11.49 17.208-4.586 19.455-18.914 1.468-39.935-3.247-59.236-12.2-16.486-7.647-29.702-17.638-32.907-24.623z" fill="#C6C6C6" fill-rule="nonzero"/>
<path d="M197.5 153a4 4 0 1 1 0 8 4 4 0 0 1 0-8zm213-9a4 4 0 1 1 0 8 4 4 0 0 1 0-8zm-319-11a4 4 0 1 1 0 8 4 4 0 0 1 0-8zm-81-19a4 4 0 1 1 0 8 4 4 0 0 1 0-8zm199-44a4 4 0 1 1 0 8 4 4 0 0 1 0-8zm-45-29a4 4 0 1 1 0 8 4 4 0 0 1 0-8zM44 161a2.5 2.5 0 1 1 0 5 2.5 2.5 0 0 1 0-5zm142-43a2.5 2.5 0 1 1 0 5 2.5 2.5 0 0 1 0-5zm-47-2a2.5 2.5 0 1 1 0 5 2.5 2.5 0 0 1 0-5zm235-7a2.5 2.5 0 1 1 0 5 2.5 2.5 0 0 1 0-5zM237 34a2.5 2.5 0 1 1 0 5 2.5 2.5 0 0 1 0-5zM60 9a2.5 2.5 0 1 1 0 5 2.5 2.5 0 0 1 0-5zm52-9a2.5 2.5 0 1 1 0 5 2.5 2.5 0 0 1 0-5z" fill="#D8D8D8"/>
</g>
</svg>
