<svg xmlns="http://www.w3.org/2000/svg" width="68" height="38">
  <g fill="none" fill-rule="evenodd">
    <path fill="#979797" d="M54.276 9.125a2.417 2.417 0 012.417 2.417v16.916a2.417 2.417 0 01-2.417 2.417h-14.5a2.417 2.417 0 01-2.416-2.417V11.542a2.417 2.417 0 012.416-2.417h14.5zm0 1.208h-14.5c-.62 0-1.13.467-1.2 1.068l-.008.14v16.917c0 .62.467 1.13 1.068 1.2l.14.009h14.5c.62 0 1.13-.467 1.2-1.068l.009-.14V11.541c0-.62-.467-1.13-1.068-1.2l-.14-.009zm-6.041 11.48a.604.604 0 01.108 1.198l-.108.01h-6.042a.604.604 0 01-.108-1.199l.108-.01h6.042zm3.625-3.625a.604.604 0 01.108 1.198l-.108.01h-9.667a.604.604 0 01-.108-1.199l.108-.01h9.667zm0-3.625a.604.604 0 01.108 1.198l-.108.01h-9.667a.604.604 0 01-.108-1.199l.108-.01h9.667z"/>
    <path fill="#727487" d="M29.751 21.303c-.063-.12-.22-.181-.347-.211-.725 0-6.966-.242-6.966-7.199a.41.41 0 00-.41-.393.41.41 0 00-.41.393c0 6.957-6.242 7.199-6.935 7.199-.095 0-.19.03-.252.09-.063.03-.095.091-.126.121a.432.432 0 000 .394.44.44 0 00.378.211h.031c.725 0 6.935.242 6.935 7.199 0 .212.19.393.41.393a.41.41 0 00.41-.393c0-6.926 6.21-7.199 6.935-7.199.158 0 .284-.09.379-.211a.36.36 0 00-.032-.394zm-7.723 4.84c-.914-2.874-3.153-4.114-4.918-4.658 1.765-.545 4.004-1.785 4.918-4.658.914 2.873 3.152 4.113 4.917 4.658-1.765.544-4.003 1.784-4.917 4.658zm-5.241-14.196c.21 0 .39-.192.39-.449 0-.224-.18-.416-.39-.416-.36 0-3.6-.128-3.6-4.165 0-.225-.18-.417-.39-.417-.21 0-.39.192-.39.417 0 4.037-3.238 4.165-3.598 4.165h-.03a.408.408 0 00-.36.416c0 .225.18.417.39.417.39 0 3.599.128 3.599 4.165 0 .224.18.416.39.416.18.033.36-.16.36-.384 0-4.037 3.239-4.165 3.599-4.165h.03zm-4.02 1.826c-.48-1.217-1.349-1.89-2.159-2.275.87-.384 1.68-1.121 2.16-2.275.48 1.218 1.35 1.89 2.16 2.275-.87.385-1.68 1.122-2.16 2.275zm1.1 11.305c-.36 0-3.599-.128-3.599-4.162 0-.224-.18-.416-.39-.416-.21 0-.39.192-.39.416 0 4.034-3.239 4.162-3.599 4.162h-.03a.408.408 0 00-.36.416c0 .224.18.416.39.416.39 0 3.6.128 3.6 4.161 0 .225.18.417.39.417.18.064.36-.128.36-.385 0-4.033 3.238-4.161 3.598-4.161h.03c.21 0 .39-.192.39-.448 0-.224-.18-.416-.39-.416zm-4.019 2.72a4.257 4.257 0 00-2.159-2.272c.87-.384 1.68-1.12 2.16-2.273.48 1.216 1.349 1.889 2.159 2.273-.87.384-1.68 1.12-2.16 2.273z"/>
  </g>
</svg>
