<?xml version="1.0" encoding="UTF-8"?>
<svg width="26px" height="29px" viewBox="0 0 26 29" version="1.1" xmlns="http://www.w3.org/2000/svg" xmlns:xlink="http://www.w3.org/1999/xlink">
    <title>340841A3-06B3-4601-AC3B-E9A0D999F877</title>
    <g id="Page-5" stroke="none" stroke-width="1" fill="none" fill-rule="evenodd">
        <g id="Rename-to-a-name-in-use" transform="translate(-139.000000, -84.000000)" fill="#283C50">
            <g id="Headline" transform="translate(131.000000, 79.000000)">
                <g id="App-Icons/icon_app-page_smartwalkthru" transform="translate(8.000000, 5.000000)">
                    <path d="M25.3333333,0 L25.3333333,28.3333333 L2.33333333,28.3333333 C1.22876383,28.3333333 0.333333333,27.4379028 0.333333333,26.3333333 L0.333333333,2 C0.333333333,0.8954305 1.22876383,2.02906125e-16 2.33333333,0 L25.3333333,0 Z M23.6666667,25 L4.5,25 C4.03976271,25 3.66666667,25.373096 3.66666667,25.8333333 C3.66666667,26.2935706 4.03976271,26.6666667 4.5,26.6666667 L4.5,26.6666667 L23.6666667,26.6666667 L23.6666667,25 Z M23.6666667,1.66666667 L4.66666667,1.66666667 C4.11438192,1.66666667 3.66666667,2.11438192 3.66666667,2.66666667 L3.66666667,2.66666667 L3.66666667,22.3333333 C3.66666667,22.8856181 4.11438192,23.3333333 4.66666667,23.3333333 L4.66666667,23.3333333 L23.6666667,23.3333333 L23.6666667,1.66666667 Z M17,11.6666667 L17,13.3333333 L7.83333333,13.3333333 C7.37309604,13.3333333 7,12.9602373 7,12.5 C7,12.0397627 7.37309604,11.6666667 7.83333333,11.6666667 L17,11.6666667 Z M20.3333333,8.33333333 L20.3333333,10 L7.83333333,10 C7.37309604,10 7,9.62690396 7,9.16666667 C7,8.70642938 7.37309604,8.33333333 7.83333333,8.33333333 L20.3333333,8.33333333 Z" id="icon-event-course"></path>
                </g>
            </g>
        </g>
    </g>
</svg>