<svg width="17" height="16" xmlns="http://www.w3.org/2000/svg" xmlns:xlink="http://www.w3.org/1999/xlink"><defs>
<path d="M11.497 0c.27 0 .664.161.863.36l4.28 4.28c.205.205.36.588.36.87V15c0 .551-.449 1-1 1H5c-.551 0-1-.449-1-1v-3h1v3H16V6.013h-4.151a.843.843 0 0 1-.596-.248.864.864 0 0 1-.252-.611V1H5v8H4V1c0-.512.387-.935.884-.993L5 0zM7.086 7.083l3.416 3.415-3.416 3.416-.854-.854L8.292 11H0v-1h8.295L6.232 7.937l.854-.854zM12 1.623v3.39L15.5 5 12 1.623z" />
</defs>
<path fill="#348bd8" fill-rule="evenodd" d="M11.497 0c.27 0 .664.161.863.36l4.28 4.28c.205.205.36.588.36.87V15c0 .551-.449 1-1 1H5c-.551 0-1-.449-1-1v-3h1v3H16V6.013h-4.151a.843.843 0 0 1-.596-.248.864.864 0 0 1-.252-.611V1H5v8H4V1c0-.512.387-.935.884-.993L5 0zM7.086 7.083l3.416 3.415-3.416 3.416-.854-.854L8.292 11H0v-1h8.295L6.232 7.937l.854-.854zM12 1.623v3.39L15.5 5 12 1.623z"/>
</svg>
