<?xml version="1.0" encoding="UTF-8"?>
<svg width="61px" height="30px" viewBox="0 0 61 30" version="1.1" xmlns="http://www.w3.org/2000/svg" xmlns:xlink="http://www.w3.org/1999/xlink">
    <title>399327FB-7556-47D2-9B9A-001E7201128A</title>
    <defs>
        <filter id="filter-1">
            <feColorMatrix in="SourceGraphic" type="matrix" values="0 0 0 0 0.721569 0 0 0 0 0.725490 0 0 0 0 0.764706 0 0 0 1.000000 0"></feColorMatrix>
        </filter>
    </defs>
    <g id="Controls" stroke="none" stroke-width="1" fill="none" fill-rule="evenodd">
        <g id="Icons" transform="translate(-782.000000, -125.000000)">
            <g id="Lesson-empty" transform="translate(782.000000, 126.000000)">
                <g filter="url(#filter-1)" id="Icons/Lesson">
                    <g transform="translate(31.513462, 0.000000)">
                        <g id="Icon/Apps/icon-event-course" transform="translate(1.611111, 0.000000)" fill="#0A2333">
                            <path d="M25.7777778,0 L25.7777778,29 L2,29 C0.8954305,29 -3.90666554e-12,28.1045695 -3.90680081e-12,27 L-3.90680081e-12,2 C-3.90693608e-12,0.8954305 0.8954305,2.02906125e-16 2,0 L25.7777778,0 Z M24.0592593,25.5882353 L4.28997821,25.5882353 C3.81891181,25.5882353 3.43703704,25.9701101 3.43703704,26.4411765 C3.43703704,26.9122429 3.81891181,27.2941176 4.28997821,27.2941176 L4.28997821,27.2941176 L24.0592593,27.2941176 L24.0592593,25.5882353 Z M24.0592593,1.70588235 L4.43703704,1.70588235 C3.88475229,1.70588235 3.43703704,2.1535976 3.43703704,2.70588235 L3.43703704,2.70588235 L3.43703704,22.8823529 C3.43703704,23.4346377 3.88475229,23.8823529 4.43703704,23.8823529 L4.43703704,23.8823529 L24.0592593,23.8823529 L24.0592593,1.70588235 Z" id="icon-event-course"></path>
                        </g>
                        <polygon id="L" fill="#0A2333" fill-rule="nonzero" points="19.6716037 17.7222222 19.6716037 15.8263346 14.6604818 15.8263346 14.6604818 6.26822917 12.3004557 6.26822917 12.3004557 17.7222222"></polygon>
                    </g>
                </g>
                <g id="clean" transform="translate(-0.000000, 0.222222)" fill="#727487" fill-rule="nonzero">
                    <path d="M24.7379983,14.5811804 C24.6749515,14.4601974 24.5173343,14.3997059 24.3912406,14.3694602 C23.6662016,14.3694602 17.4245618,14.1274942 17.4245618,7.17097248 C17.4245618,6.95925226 17.2354212,6.77777778 17.0147571,6.77777778 C16.7940931,6.77777778 16.6049525,6.95925226 16.6049525,7.17097248 C16.6049525,14.1274942 10.3633127,14.3694602 9.66979712,14.3694602 C9.57522682,14.3694602 9.48065652,14.3997059 9.41760965,14.4601974 C9.35456279,14.4904432 9.32303935,14.5509347 9.29151592,14.5811804 C9.22846905,14.7021634 9.22846905,14.8533921 9.29151592,14.9743751 C9.35456279,15.0953581 9.51217995,15.1860954 9.66979712,15.1860954 C9.66979712,15.1860954 9.66979712,15.1860954 9.70132055,15.1860954 C10.4263595,15.1860954 16.6364759,15.4280613 16.6364759,22.3845831 C16.6364759,22.5963033 16.8256165,22.7777778 17.0462806,22.7777778 C17.2669446,22.7777778 17.4560852,22.5963033 17.4560852,22.3845831 C17.4560852,15.4583071 23.6662016,15.1860954 24.3912406,15.1860954 C24.5488577,15.1860954 24.6749515,15.0953581 24.7695218,14.9743751 C24.8325686,14.8533921 24.8325686,14.7021634 24.7379983,14.5811804 Z M17.0147571,19.4204999 C16.1005775,16.547154 13.8624138,15.3070783 12.0971015,14.7626549 C13.8624138,14.2182315 16.1005775,12.9781558 17.0147571,10.1048099 C17.9289367,12.9781558 20.1671005,14.2182315 21.9324127,14.7626549 C20.1671005,15.3070783 17.9289367,16.547154 17.0147571,19.4204999 Z" id="Shape" fill-opacity="0.5"></path>
                    <path d="M11.7735643,5.22458522 C11.983509,5.22458522 12.1634615,5.03234495 12.1634615,4.7760246 C12.1634615,4.5517443 11.983509,4.35950403 11.7735643,4.35950403 C11.4136591,4.35950403 8.17451264,4.23134386 8.17451264,0.194298347 C8.17451264,-0.0299819597 7.99456006,-0.222222222 7.78461538,-0.222222222 C7.57467071,-0.222222222 7.39471812,-0.0299819597 7.39471812,0.194298347 C7.39471812,4.23134386 4.15557165,4.35950403 3.79566649,4.35950403 C3.76567439,4.35950403 3.76567439,4.35950403 3.76567439,4.35950403 C3.55572972,4.39154408 3.40576923,4.5517443 3.40576923,4.7760246 C3.40576923,5.00030491 3.58572181,5.19254517 3.79566649,5.19254517 C4.18556375,5.19254517 7.39471812,5.32070535 7.39471812,9.35775086 C7.39471812,9.58203117 7.57467071,9.77427143 7.78461538,9.77427143 C7.96456797,9.80631147 8.14452055,9.61407121 8.14452055,9.3897909 C8.14452055,5.35274539 11.383667,5.22458522 11.7435722,5.22458522 L11.7735643,5.22458522 Z M7.75462329,7.05086771 C7.27474974,5.83334605 6.40497893,5.16050513 5.59519231,4.7760246 C6.46496312,4.39154408 7.27474974,3.65462307 7.75462329,2.5011815 C8.23449684,3.71870316 9.10426765,4.39154408 9.91405427,4.7760246 C9.04428346,5.16050513 8.23449684,5.89742613 7.75462329,7.05086771 Z" id="Shape" fill-opacity="0.3"></path>
                    <path d="M8.85433351,18.3554238 C8.49442835,18.3554238 5.25528188,18.2273778 5.25528188,14.1939274 C5.25528188,13.9698468 5.07532929,13.7777778 4.86538462,13.7777778 C4.65543994,13.7777778 4.47548736,13.9698468 4.47548736,14.1939274 C4.47548736,18.2273778 1.23634089,18.3554238 0.876435722,18.3554238 C0.846443625,18.3554238 0.846443625,18.3554238 0.846443625,18.3554238 C0.636498946,18.3874353 0.486538462,18.5474929 0.486538462,18.7715735 C0.486538462,18.995654 0.666491043,19.1877231 0.876435722,19.1877231 C1.26633298,19.1877231 4.47548736,19.3157692 4.47548736,23.3492195 C4.47548736,23.5733001 4.65543994,23.7653692 4.86538462,23.7653692 C5.0453372,23.8293922 5.22528978,23.6373231 5.22528978,23.381231 C5.22528978,19.3477807 8.46443625,19.2197346 8.82434141,19.2197346 L8.85433351,19.2197346 C9.06427819,19.2197346 9.24423077,19.0276656 9.24423077,18.7715735 C9.24423077,18.5474929 9.06427819,18.3554238 8.85433351,18.3554238 Z M4.83539252,21.0764023 C4.32552687,19.8599648 3.48574816,19.1877231 2.67596154,18.803585 C3.54573235,18.4194469 4.35551897,17.6831821 4.83539252,16.5307677 C5.31526607,17.7472051 6.18503688,18.4194469 6.9948235,18.803585 C6.12505269,19.1877231 5.31526607,19.9239879 4.83539252,21.0764023 Z" id="Shape" fill-opacity="0.2"></path>
                </g>
            </g>
        </g>
    </g>
</svg>