<svg width="16" height="18" viewBox="4 3 16 18" xmlns="http://www.w3.org/2000/svg">
<path d="M18 3a2 2 0 0 1 2 2v14a2 2 0 0 1-2 2H6a2 2 0 0 1-2-2V5a2 2 0 0 1 2-2h12zm0 1H6a1 1 0 0 0-.993.883L5 5v14a1 1 0 0 0 .883.993L6 20h12a1 1 0 0 0 .993-.883L19 19V5a1 1 0 0 0-.883-.993L18 4zm-5 9.5a.5.5 0 0 1 .09.992L13 14.5H8a.5.5 0 0 1-.09-.992L8 13.5h5zm3-3a.5.5 0 0 1 .09.992L16 11.5H8a.5.5 0 0 1-.09-.992L8 10.5h8zm0-3a.5.5 0 0 1 .09.992L16 8.5H8a.5.5 0 0 1-.09-.992L8 7.5h8z" fill="#979797" fill-rule="nonzero"/>
</svg>