<svg width="13" height="13" xmlns="http://www.w3.org/2000/svg" xmlns:xlink="http://www.w3.org/1999/xlink"><defs>
<path d="M9.663.333c.116 0 .218.04.307.12l2.577 2.577c.08.089.12.19.12.307a.4.4 0 0 1-.12.293l-8.383 8.383a.503.503 0 0 1-.2.12l-3.43.854a.414.414 0 0 1-.408-.113.414.414 0 0 1-.113-.408l.854-3.43a.503.503 0 0 1 .12-.2L9.37.453a.4.4 0 0 1 .293-.12zm.007 1.021L1.664 9.361l-.652 2.627 2.627-.652 8.007-8.006L9.67 1.354z"/>
</defs>
<path fill="currentColor" fill-rule="evenodd" d="M9.663.333c.116 0 .218.04.307.12l2.577 2.577c.08.089.12.19.12.307a.4.4 0 0 1-.12.293l-8.383 8.383a.503.503 0 0 1-.2.12l-3.43.854a.414.414 0 0 1-.408-.113.414.414 0 0 1-.113-.408l.854-3.43a.503.503 0 0 1 .12-.2L9.37.453a.4.4 0 0 1 .293-.12zm.007 1.021L1.664 9.361l-.652 2.627 2.627-.652 8.007-8.006L9.67 1.354z"/>
</svg>

