<svg  width="19" height="18" viewBox="0 0 19 18" xmlns="http://www.w3.org/2000/svg" xmlns:xlink="http://www.w3.org/1999/xlink">
  <path d="M15.01808 1.01868c1.38071 0 2.5 1.11929 2.5 2.5v11c0 1.3807-1.11929 2.5-2.5 2.5H4.00549c-1.3807 0-2.5-1.1193-2.5-2.5v-11c0-1.38071 1.1193-2.5 2.5-2.5zm0 1H4.00549c-.82842 0-1.5.67157-1.5 1.5v11c0 .82842.67158 1.5 1.5 1.5h11.01259c.82843 0 1.5-.67158 1.5-1.5v-11c0-.82843-.67157-1.5-1.5-1.5zM9.02441 11.6626c.22917 0 .41.06714.54248.20141.1325.13428.19873.30347.19873.50757 0 .19694-.06445.36166-.19335.49414-.12891.13249-.31153.19873-.54786.19873-.23632 0-.41805-.06624-.54516-.19873-.12712-.13248-.19068-.2972-.19068-.49414 0-.21126.06625-.38224.19873-.51294.1325-.1307.31153-.19604.53711-.19604zm.12891-6.59033c.71973 0 1.281.18261 1.68384.54785.40283.36523.60425.87549.60425 1.53076 0 .58366-.27214 1.15837-.81641 1.72412l-.66064.6499-.08326.1065c-.18172.26201-.27571.6186-.28198 1.06977H8.37988l.00493-.23006c.0164-.37.07385-.67288.17232-.90861.11816-.28288.3518-.5935.70093-.93188.34912-.33838.57023-.57919.66333-.72242.14323-.21842.21484-.45475.21484-.70898 0-.33659-.08325-.5935-.24976-.77075-.1665-.17725-.41088-.26587-.73315-.26587-.30794 0-.5559.08683-.7439.2605-.18798.17366-.28198.4091-.28198.7063H6.82227l.0101-.20636c.04757-.5372.25994-.96972.63711-1.29755.42432-.36882.9856-.55322 1.68384-.55322z" fill="#AAC5D1" fill-rule="nonzero"/>
</svg>