<svg width="24" height="24" xmlns="http://www.w3.org/2000/svg">
<path d="M18 3a2 2 0 0 1 2 2v14a2 2 0 0 1-2 2H6a2 2 0 0 1-2-2V5a2 2 0 0 1 2-2h12zm0 1H6a1 1 0 0 0-.993.883L5 5v14a1 1 0 0 0 .883.993L6 20h12a1 1 0 0 0 .993-.883L19 19V5a1 1 0 0 0-.883-.993L18 4zm-4 12a.5.5 0 0 1 .09.992L14 17H8a.5.5 0 0 1-.09-.992L8 16h6zm2-2a.5.5 0 0 1 .09.992L16 15H8a.5.5 0 0 1-.09-.992L8 14h8zm-5.895-7.688L12.258 12h-1.031l-.465-1.324H8.559L8.098 12H7.07L9.22 6.312h.886zM9.66 7.52l-.824 2.359h1.648l-.824-2.36z" fill="#979797" fill-rule="nonzero"/>
</svg>