<svg width="16" height="20" viewBox="0 0 16 18" xmlns="http://www.w3.org/2000/svg" xmlns:xlink="http://www.w3.org/1999/xlink">
  <path d="M11.48339 1.4004l.06161.01251.15013.00445c1.22585.06783 2.25679.77815 2.7691 2.05894C14.92426 4.62634 15.5 8.3604 15.5 9.662c0 1.18549-.86703 1.98272-2.34189 2.47434l-.1976.06141c-.7892.22755-1.63538.26087-2.76811.13769L9.803 12.288l.06251.1921c.3584 1.1847.31063 2.37301-.34498 3.31965l-.1409.18765c-1.22641 1.4308-2.39786 1.4308-2.8604-.18804L6.5 15.662v-1.428l.01493.04927c-.26239-1.04954-1.00302-2.00162-2.24481-2.8544C3.93695 12.0658 3.26918 12.5 2.5 12.5c-1.10457 0-2-.89543-2-2v-7c0-1.10457.89543-2 2-2 .88998 0 1.64418.5813 1.90364 1.38494 1.91389-.85411 5.80581-1.66959 7.07975-1.48454zM4.57833 3.9053L4.5 3.948v6.43591l.04619.02841c1.60132 1.0255 2.59033 2.23422 2.93888 3.62841L7.5 14.162v1.429l.03863.11855c.16392.46765.34112.45312.8809-.144l.19004-.2159c.69198-.86497.57602-2.19843-.05678-3.46404-.18275-.3655.12633-.78399.5294-.7168 1.7836.29726 2.84378.32415 3.7597.01885C13.955 10.81662 14.5 10.3155 14.5 9.662c0-1.184-.55693-4.79604-.96424-5.8143C13.15196 2.8882 12.4112 2.412 11.5 2.412l-.12127-.01493-.10883-.01971c-1.0916-.13915-5.14195.7417-6.69157 1.52795zM2.5 2.5c-.55228 0-1 .44772-1 1v7c0 .55228.44772 1 1 1s1-.44772 1-1v-7c0-.55228-.44772-1-1-1z" fill="#AAC5D1" fill-rule="nonzero"/>
</svg>
