<svg width="84" height="50" viewBox="0 0 84 50" xmlns="http://www.w3.org/2000/svg" xmlns:xlink="http://www.w3.org/1999/xlink">
  <g fill="none" fill-rule="evenodd">
    <path d="M83.29494 31.3247724c-.0827093-.155712-.2894826-.233568-.4549012-.272496-.9511569 0-9.139377-.311424-9.139377-9.2648642 0-.272496-.2481279-.506064-.5376105-.506064-.2894825 0-.5376104.233568-.5376104.506064 0 8.9534402-8.1882202 9.2648642-9.0980224 9.2648642-.1240639 0-.2481279.038928-.3308372.116784-.0827093.038928-.1240639.116784-.1654186.155712-.0827093.155712-.0827093.350352 0 .506064.0827093.1557121.2894826.2724961.4962558.2724961h.0413546c.9511569 0 9.0980225.311424 9.0980225 9.2648642 0 .272496.2481279.506064.5376104.506064.2894825 0 .5376104-.233568.5376104-.506064 0-8.9145122 8.1468655-9.2648642 9.0980224-9.2648642.2067733 0 .3721919-.116784.4962558-.2724961.0827093-.155712.0827093-.350352-.0413546-.506064zm-10.1318887 6.2284802c-1.1992847-3.6981601-4.1354647-5.2942081-6.4513249-5.9949122 2.3158602-.700704 5.2520402-2.296752 6.4513249-5.9949121 1.1992848 3.6981601 4.1354648 5.2942081 6.451325 5.9949121-2.3158602.7007041-5.2520402 2.2967521-6.451325 5.9949122z" fill="#C6C6C6" fill-rule="nonzero"/>
    <path d="M11.4069849 20.3349491c.2692997 0 .500128-.2573212.500128-.6004161 0-.300208-.2308283-.5575291-.500128-.5575291-.4616566 0-4.616566-.1715475-4.616566-5.5752916 0-.300208-.2308283-.5575291-.500128-.5575291-.2692996 0-.500128.2573211-.500128.5575291 0 5.4037441-4.1549093 5.5752916-4.616566 5.5752916h-.0384713c-.2692997.0428868-.4616566.2573211-.4616566.5575291s.2308283.5575292.500128.5575292c.500128 0 4.616566.1715474 4.616566 5.5752916 0 .300208.2308283.5575291.500128.5575291.2308283.0428869.4616566-.2144343.4616566-.5146423 0-5.4037441 4.1549094-5.5752915 4.616566-5.5752915h.0384713zM6.2518196 22.7795c-.6155422-1.6297006-1.7312123-2.5303247-2.7699396-3.044967 1.1156701-.5146423 2.1543974-1.50104 2.7699396-3.0449669.6155421 1.6297006 1.7312122 2.5303246 2.7699396 3.0449669-1.1156701.5146423-2.1543975 1.5010401-2.7699396 3.044967z" fill="#C6C6C6" fill-rule="nonzero"/>
    <path d="M70.6389256 6.8157948c-.4616566 0-4.616566-.1713946-4.616566-5.5703265 0-.2999407-.2308283-.5570327-.5001279-.5570327-.2692997 0-.500128.257092-.500128.5570327 0 5.3989319-4.1549094 5.5703265-4.616566 5.5703265h-.0384714c-.2692997.0428487-.4616566.257092-.4616566.5570327 0 .2999407.2308283.5570327.500128.5570327.500128 0 4.616566.1713946 4.616566 5.5703265 0 .2999407.2308283.5570327.500128.5570327.2308283.0856973.4616566-.1713947.4616566-.514184 0-5.398932 4.1549093-5.5703266 4.6165659-5.5703266h.0384714c.2692997 0 .500128-.257092.500128-.5998813 0-.2999407-.2308283-.5570327-.500128-.5570327zm-5.1551653 3.6421366c-.6540135-1.6282493-1.7312123-2.5280712-2.7699396-3.0422552 1.1156701-.514184 2.1543974-1.4997033 2.7699396-3.0422553.6155421 1.6282493 1.7312122 2.5280713 2.7699396 3.0422553-1.1156701.514184-2.1543975 1.4997033-2.7699396 3.0422552z" fill="#C6C6C6" fill-rule="nonzero"/>
    <g transform="translate(.673469 .65879)">
      <path d="M50.076531 8.96621c2.0710678 0 3.75 1.6789322 3.75 3.75v26.25c0 2.0710678-1.6789322 3.75-3.75 3.75h-22.5c-2.0710678 0-3.75-1.6789322-3.75-3.75v-26.25c0-2.0710678 1.6789322-3.75 3.75-3.75h22.5zm0 1.875h-22.5c-.9615672 0-1.754076.7238254-1.8623855 1.6563354l-.0126145.2186646v26.25c0 .9615672.7238254 1.7540759 1.6563354 1.8623855l.2186646.0126145h22.5c.9615672 0 1.7540759-.7238254 1.8623855-1.6563354l.0126145-.2186646v-26.25c0-.9615672-.7238254-1.754076-1.6563354-1.8623855l-.2186646-.0126145zm-7.5 22.5c.517767 0 .9375.419733.9375.9375 0 .4602373-.3316409.8430157-.7689832.9223956l-.1685168.0151044h-11.25c-.517767 0-.9375-.419733-.9375-.9375 0-.4602373.331641-.8430157.7689832-.9223956l.1685168-.0151044h11.25zm3.75-3.75c.517767 0 .9375.419733.9375.9375 0 .4602373-.3316409.8430157-.7689832.9223956l-.1685168.0151044h-15c-.517767 0-.9375-.419733-.9375-.9375 0-.4602373.331641-.8430157.7689832-.9223956l.1685168-.0151044h15zM35.2742849 15.1771475L39.3099294 25.84121h-1.9335937l-.871582-2.4829102h-4.1308594l-.8642578 2.4829102h-1.9262696l4.0283203-10.6640625h1.6625977zm-.8349609 2.2631836l-1.5454102 4.4238281h3.0908203l-1.5454101-4.4238281z" fill="#C6C6C6" fill-rule="nonzero"/>
    </g>
  </g>
</svg>
