<svg width="26" height="32" xmlns="http://www.w3.org/2000/svg" xmlns:xlink="http://www.w3.org/1999/xlink">
    <path fill="currentColor" d="M13 .375c.968 0 1.48.325 2.556 1.255.592.512.842.69 1.128.793.287.102.592.123 1.379.106 1.433-.032 2.041.043 2.78.653.731.603.908 1.17 1.124 2.555.12.77.195 1.065.353 1.335.153.26.379.478.947.927 1.159.913 1.573 1.351 1.737 2.273.165.92-.07 1.469-.808 2.664-.412.668-.549.944-.603 1.244-.054.303-.022.609.13 1.363.282 1.385.312 1.976-.162 2.785-.269.458-.558.745-1 .989l3.258 8.733-2.455-.466-3.268-.619-3.676 4.426-2.98-7.985-2.98 7.986-1.578-1.901-2.097-2.526-5.722 1.085 3.133-8.398c-.916-.343-1.36-.646-1.757-1.324-.475-.808-.444-1.396-.165-2.774.155-.765.187-1.069.133-1.374-.054-.3-.19-.576-.604-1.244-.736-1.192-.972-1.744-.807-2.665.165-.92.578-1.358 1.69-2.236 1.067-.84 1.14-.964 1.347-2.298.216-1.383.395-1.954 1.124-2.555.739-.61 1.347-.685 2.78-.653.787.017 1.092-.004 1.378-.107.288-.102.537-.28 1.13-.792C11.52.7 12.031.375 13 .375zm8.185 19.493l-.11.037c-.64.214-.93.345-1.153.53-.236.194-.41.448-.791 1.133-.687 1.233-1.052 1.707-1.955 2.03-.746.267-1.281.225-2.187-.081l1.907 5.11 2.44-2.938.193-.232.3.057 3.806.72-2.382-6.389-.068.023zm-15.658.256l-2.28 6.11 3.806-.72.3-.057.192.232 2.44 2.939 2.048-5.488c-.102.037-.215.08-.341.128-1.363.522-1.958.656-2.867.33-.91-.325-1.407-.98-1.957-2.032-.38-.683-.554-.937-.79-1.132a2.007 2.007 0 00-.55-.31zM13 1.75c-.564 0-1.085.45-1.614.907-.481.416-.968.836-1.581 1.056-.535.191-1.098.204-1.66.195l-.24-.005c-.704-.015-1.398-.03-1.83.326-.43.354-.534 1.03-.641 1.714-.26 1.671-.513 2.102-1.854 3.16-.55.433-1.091.86-1.189 1.404-.098.547.262 1.13.627 1.722.334.54.672 1.087.784 1.716.114.632-.013 1.257-.138 1.875-.138.68-.274 1.35.006 1.828s.938.698 1.605.92c.607.202 1.221.407 1.72.819.499.411.811.972 1.12 1.525.242.465.665 1.205 1.2 1.396.529.19 1.176-.059 1.833-.31.598-.23 1.204-.462 1.852-.462.648 0 1.254.233 1.852.462.657.251 1.304.5 1.833.31.528-.188.861-.787 1.2-1.394.308-.554.62-1.115 1.119-1.527.5-.412 1.114-.617 1.72-.82.668-.222 1.325-.441 1.606-.92.28-.476.144-1.147.006-1.827-.125-.618-.252-1.243-.138-1.875.112-.629.45-1.175.784-1.716.364-.591.725-1.175.627-1.722-.098-.544-.64-.971-1.189-1.405-.498-.393-1.003-.79-1.33-1.35-.329-.56-.427-1.188-.524-1.81-.107-.684-.212-1.359-.64-1.713-.433-.356-1.127-.341-1.83-.326-.642.015-1.29.029-1.901-.19-.613-.22-1.1-.64-1.581-1.056-.53-.457-1.05-.907-1.614-.907zm0 3.438c1.903 0 3.69.733 5.008 2.013a6.756 6.756 0 012.075 4.862 6.757 6.757 0 01-2.075 4.861A7.176 7.176 0 0113 18.938a7.177 7.177 0 01-5.009-2.014 6.758 6.758 0 01-2.074-4.861c0-1.847.755-3.581 2.074-4.862A7.175 7.175 0 0113 5.188zm0 1.375a5.737 5.737 0 00-4.007 1.61 5.404 5.404 0 00-1.66 3.89c0 1.518.635 2.894 1.66 3.889A5.739 5.739 0 0013 17.562a5.738 5.738 0 004.007-1.61 5.404 5.404 0 001.66-3.89c0-1.518-.635-2.893-1.66-3.888A5.737 5.737 0 0013 6.563z" id="quiz-b"/>
</svg>
