<svg  width="16" height="20" viewBox="0 0 16 18" xmlns="http://www.w3.org/2000/svg" xmlns:xlink="http://www.w3.org/1999/xlink">
  <path d="M6.51924 2.61264C6.98177.99379 8.15322.99379 9.37963 2.4246l.1409.18765c.6556.94664.70338 2.13495.34498 3.31965L9.803 6.124l.3894-.04744c1.13273-.12318 1.97892-.08986 2.7681.13769l.19761.0614C14.63297 6.76729 15.5 7.56452 15.5 8.75c0 1.3016-.57575 5.03566-1.03576 6.1857C13.92496 16.2839 12.81103 17 11.5 17l.046-.00109-.06261.0127c-1.30729.18988-5.3714-.67382-7.22884-1.55264C3.9153 16.07973 3.25673 16.5 2.5 16.5c-1.10457 0-2-.89543-2-2v-7c0-1.10457.89543-2 2-2 .8911 0 1.64608.58276 1.90462 1.38796 1.16096-.82756 1.85755-1.74817 2.1103-2.75923L6.5 4.178V2.75zm1.90028.23382c-.53977-.59713-.71697-.61166-.88089-.144L7.5 2.821V4.25l-.01493.12127c-.36905 1.4762-1.45613 2.74446-3.22782 3.80748L4.5 8.0269V14.464l.07833.04269c1.54962.78625 5.59998 1.6671 6.69157 1.52795l.10883-.01971L11.5 16c.9112 0 1.65197-.47621 2.03576-1.4357.4073-1.01826.96424-4.6303.96424-5.8143 0-.6535-.54499-1.15462-1.65811-1.52566-.91592-.3053-1.9761-.2784-3.7597.01886-.40307.06718-.71215-.3513-.5294-.7168.6328-1.26562.74876-2.59908.05678-3.46405zM2.5 6.5c-.55228 0-1 .44772-1 1v7c0 .55228.44772 1 1 1s1-.44772 1-1v-7c0-.55228-.44772-1-1-1z" fill="#AAC5D1" fill-rule="nonzero"/>
</svg>
