<svg  width="16" height="16" viewBox="0 0 16 16" xmlns="http://www.w3.org/2000/svg" xmlns:xlink="http://www.w3.org/1999/xlink">
  <path d="M7 .24159a2 2 0 01.2271.01293l6 .68572C14.23721 1.05568 15 1.9106 15 2.9273v10.1454c0 1.0167-.76278 1.87162-1.7729 1.98706l-6 .68572c-1.09743.12542-2.08875-.66255-2.21417-1.75998A2 2 0 015 13.75841V2.24159c0-1.10457.89543-2 2-2zm0 1c-.51284 0-.9355.38604-.99327.88338L6 2.24159v11.51682a1 1 0 00.00647.11355c.05823.50952.48976.88562.99045.88654l.11663-.00656 6-.68571c.46621-.05328.82704-.4216.8798-.87779L14 13.0727V2.9273c0-.46924-.32497-.86956-.77221-.97378l-.11424-.01975-6-.68571A1 1 0 007 1.24159zM4 1.5c.27614 0 .5.22386.5.5 0 .24546-.17688.4496-.41012.49194L4 2.5H3c-.24546 0-.4496.17688-.49194.41012L2.5 3v10c0 .24546.17688.4496.41012.49194L3 13.5h1c.27614 0 .5.22386.5.5 0 .24546-.17688.4496-.41012.49194L4 14.5H3c-.7797 0-1.42045-.59489-1.49313-1.35554L1.5 13V3c0-.7797.59489-1.42045 1.35554-1.49313L3 1.5h1zM8 7c.55228 0 1 .44772 1 1s-.44772 1-1 1-1-.44772-1-1 .44772-1 1-1z" fill="#AAC5D1" fill-rule="nonzero"/>
</svg>
