<svg viewBox="6 0 14 22" width="18" height="22" xmlns="http://www.w3.org/2000/svg" xmlns:xlink="http://www.w3.org/1999/xlink">
  <g fill="none" fill-rule="evenodd">
    <g transform="translate(4 3)">
      <rect stroke="#979797" x=".5" y=".5" width="15" height="17" rx="2"/>
      <path stroke="#8D8D8D" stroke-linecap="round" d="M4 11.5h8"/>
      <path stroke="#8D8D8D" stroke-linecap="round" d="M4 13.5h6"/>
      <text font-family="Roboto-Medium, Roboto" font-size="8" font-weight="400" fill="#979797">
        <tspan x="3" y="9">A</tspan>
      </text>
    </g>
    <path d="M18 3c1.10457 0 2 .89543 2 2v14c0 1.10457-.89543 2-2 2H6c-1.10457 0-2-.89543-2-2V5c0-1.10457.89543-2 2-2h12zm0 1H6c-.51284 0-.9355.38604-.99327.88338L5 5v14c0 .51284.38604.9355.88338.99327L6 20h12c.51284 0 .9355-.38604.99327-.88338L19 19V5c0-.51284-.38604-.9355-.88338-.99327L18 4zm-4 12c.27614 0 .5.22386.5.5 0 .24546-.17688.4496-.41012.49194L14 17H8c-.27614 0-.5-.22386-.5-.5 0-.24546.17688-.4496.41012-.49194L8 16h6zm2-2c.27614 0 .5.22386.5.5 0 .24546-.17688.4496-.41012.49194L16 15H8c-.27614 0-.5-.22386-.5-.5 0-.24546.17688-.4496.41012-.49194L8 14h8zm-5.89453-7.6875L12.2578 12h-1.03125l-.46484-1.32422H8.55859L8.09766 12H7.0703l2.14844-5.6875h.88672zm-.44531 1.20703l-.82422 2.35938h1.64843l-.82421-2.35938z" fill="#979797" fill-rule="nonzero"/>
  </g>
</svg>