<svg xmlns="http://www.w3.org/2000/svg" width="16" height="16" viewBox="0 0 16 16">
  <g fill="currentColor" fill-rule="nonzero">
    <path d="M6.382 2.277c-1.38.444-2.571 1.4-3.365 2.7a1.914 1.914 0 00-.2.691V3.336H2v3.54h3.268v-.885H3.42c.915-1.906 2.723-3.113 4.706-3.141 2.351.03 4.412 1.71 5.089 4.15L14 6.748c-.964-3.514-4.375-5.516-7.618-4.471zM10.732 9.124v.886h1.847c-.915 1.91-2.723 3.119-4.706 3.147-2.351-.03-4.412-1.713-5.089-4.157L2 9.253c.968 3.518 4.381 5.518 7.624 4.467 1.42-.46 2.638-1.463 3.428-2.823.085-.174.13-.367.131-.563v2.336H14V9.124h-3.268z"/>
  </g>
</svg>
