<svg width="16" height="16" viewBox="0 0 16 16" xmlns="http://www.w3.org/2000/svg" xmlns:xlink="http://www.w3.org/1999/xlink">
  <defs>
    <path fill="currentColor" d="M15.35025 14.70133c.09983.0832.14975.19135.14975.32446 0 .13311-.04576.24542-.13727.33694-.09152.09151-.20383.13727-.33694.13727s-.24126-.04992-.32446-.14975l-4.0183-3.51914c-.53245.41598-1.13145.74044-1.797.97338-.66556.23295-1.34776.34942-2.0466.34942-1.14808 0-2.20881-.28286-3.1822-.84859-.97337-.56572-1.74292-1.33527-2.30864-2.30865C.78286 9.0233.5 7.96672.5 6.82696c0-1.13977.28286-2.19634.84859-3.16972.56572-.97338 1.33527-1.74293 2.30865-2.30865C4.63062.78286 5.68719.5 6.82696.5c1.13976 0 2.19633.28286 3.16971.84859.97338.56572 1.74293 1.33527 2.30865 2.30865.56573.97338.84859 2.0341.84859 3.1822 0 .83194-.15391 1.62229-.46173 2.37104-.30782.74875-.7446 1.41431-1.31032 1.99667l3.96839 3.49418zM1.44842 6.83943c0 .96506.24126 1.8594.7238 2.68303.48252.82363 1.1356 1.4767 1.95923 1.95924.82362.48253 1.72213.7238 2.6955.7238.97338 0 1.87189-.24127 2.69551-.7238.82363-.48253 1.4767-1.13561 1.95924-1.95924.48253-.82362.7238-1.72213.7238-2.6955 0-.97338-.24127-1.87189-.7238-2.69551-.48253-.82363-1.13561-1.4767-1.95924-1.95924-.82362-.48253-1.72213-.7238-2.6955-.7238-.97338 0-1.87189.24127-2.69551.7238-.82363.48253-1.4767 1.13561-1.95924 1.95924-.48253.82362-.7238 1.72629-.7238 2.70798z" id="search-a"/>
  </defs>
  <use xlink:href="#search-a" fill-rule="evenodd"/>
</svg>
