<svg width="16" height="16" xmlns="http://www.w3.org/2000/svg" xmlns:xlink="http://www.w3.org/1999/xlink">
<defs>
<path d="M13.944 8.784l1.688 1.32c.152.12.192.336.096.512l-1.6 2.768a.39.39 0 0 1-.488.176l-1.992-.8a6.146 6.146 0 0 1-1.352.784l-.304 2.12A.39.39 0 0 1 9.6 16H6.4a.39.39 0 0 1-.392-.336l-.304-2.12a5.845 5.845 0 0 1-1.352-.784l-1.992.8a.402.402 0 0 1-.488-.176l-1.6-2.768a.404.404 0 0 1 .096-.512l1.688-1.32A6.344 6.344 0 0 1 2 8c0-.264.024-.528.056-.784L.368 5.896a.394.394 0 0 1-.096-.512l1.6-2.768a.39.39 0 0 1 .488-.176l1.992.8a6.146 6.146 0 0 1 1.352-.784l.304-2.12A.39.39 0 0 1 6.4 0h3.2c.2 0 .368.144.392.336l.304 2.12c.488.2.936.464 1.352.784l1.992-.8a.402.402 0 0 1 .488.176l1.6 2.768a.404.404 0 0 1-.096.512l-1.688 1.32c.032.256.056.512.056.784s-.024.528-.056.784zm-2.422-4.631l-.362-.279a5.044 5.044 0 0 0-1.167-.678l-.424-.173-.065-.453L9.25.8h-2.5l-.32 2.223-.423.173c-.395.162-.783.39-1.175.684l-.36.27-.418-.168-1.662-.667-1.253 2.168 1.767 1.382-.056.45C2.817 7.58 2.8 7.8 2.8 8c0 .201.017.42.05.685l.056.45-.357.28-1.41 1.102 1.253 2.168 2.086-.838.362.279c.369.284.756.51 1.167.678l.424.173.065.453.254 1.77h2.5l.32-2.223.423-.173c.395-.162.783-.39 1.175-.684l.36-.27.418.168 1.662.667 1.253-2.168-1.767-1.382.056-.45c.034-.27.05-.479.05-.685 0-.206-.016-.414-.05-.685l-.056-.45.357-.28 1.41-1.102-1.253-2.168-2.086.838zM8 10.8A2.803 2.803 0 0 1 5.2 8c0-1.544 1.256-2.8 2.8-2.8 1.544 0 2.8 1.256 2.8 2.8 0 1.544-1.256 2.8-2.8 2.8zm0-.8c1.102 0 2-.898 2-2 0-1.102-.898-2-2-2-1.102 0-2 .898-2 2 0 1.102.898 2 2 2z" />
</defs>
<path fill="#0A2333" fill-rule="evenodd" d="M13.944 8.784l1.688 1.32c.152.12.192.336.096.512l-1.6 2.768a.39.39 0 0 1-.488.176l-1.992-.8a6.146 6.146 0 0 1-1.352.784l-.304 2.12A.39.39 0 0 1 9.6 16H6.4a.39.39 0 0 1-.392-.336l-.304-2.12a5.845 5.845 0 0 1-1.352-.784l-1.992.8a.402.402 0 0 1-.488-.176l-1.6-2.768a.404.404 0 0 1 .096-.512l1.688-1.32A6.344 6.344 0 0 1 2 8c0-.264.024-.528.056-.784L.368 5.896a.394.394 0 0 1-.096-.512l1.6-2.768a.39.39 0 0 1 .488-.176l1.992.8a6.146 6.146 0 0 1 1.352-.784l.304-2.12A.39.39 0 0 1 6.4 0h3.2c.2 0 .368.144.392.336l.304 2.12c.488.2.936.464 1.352.784l1.992-.8a.402.402 0 0 1 .488.176l1.6 2.768a.404.404 0 0 1-.096.512l-1.688 1.32c.032.256.056.512.056.784s-.024.528-.056.784zm-2.422-4.631l-.362-.279a5.044 5.044 0 0 0-1.167-.678l-.424-.173-.065-.453L9.25.8h-2.5l-.32 2.223-.423.173c-.395.162-.783.39-1.175.684l-.36.27-.418-.168-1.662-.667-1.253 2.168 1.767 1.382-.056.45C2.817 7.58 2.8 7.8 2.8 8c0 .201.017.42.05.685l.056.45-.357.28-1.41 1.102 1.253 2.168 2.086-.838.362.279c.369.284.756.51 1.167.678l.424.173.065.453.254 1.77h2.5l.32-2.223.423-.173c.395-.162.783-.39 1.175-.684l.36-.27.418.168 1.662.667 1.253-2.168-1.767-1.382.056-.45c.034-.27.05-.479.05-.685 0-.206-.016-.414-.05-.685l-.056-.45.357-.28 1.41-1.102-1.253-2.168-2.086.838zM8 10.8A2.803 2.803 0 0 1 5.2 8c0-1.544 1.256-2.8 2.8-2.8 1.544 0 2.8 1.256 2.8 2.8 0 1.544-1.256 2.8-2.8 2.8zm0-.8c1.102 0 2-.898 2-2 0-1.102-.898-2-2-2-1.102 0-2 .898-2 2 0 1.102.898 2 2 2z"/>
</svg>
