<svg width="16" height="16" viewBox="0 0 16 16" xmlns="http://www.w3.org/2000/svg" xmlns:xlink="http://www.w3.org/1999/xlink">
    <path d="M13.944 8.784l1.688 1.32c.152.12.192.336.096.512l-1.6 2.768c-.096.176-.304.248-.488.176l-1.992-.8c-.416.312-.864.584-1.352.784l-.304 2.12C9.968 15.856 9.8 16 9.6 16H6.4c-.2 0-.368-.144-.392-.336l-.304-2.12c-.488-.2-.936-.464-1.352-.784l-1.992.8c-.176.064-.392 0-.488-.176l-1.6-2.768c-.096-.176-.056-.392.096-.512l1.688-1.32C2.024 8.528 2 8.264 2 8s.024-.528.056-.784L.368 5.896c-.152-.12-.2-.336-.096-.512l1.6-2.768c.096-.176.304-.248.488-.176l1.992.8c.416-.312.864-.584 1.352-.784l.304-2.12C6.032.144 6.2 0 6.4 0h3.2c.2 0 .368.144.392.336l.304 2.12c.488.2.936.464 1.352.784l1.992-.8c.176-.064.392 0 .488.176l1.6 2.768c.096.176.056.392-.096.512l-1.688 1.32c.032.256.056.512.056.784s-.024.528-.056.784zm-2.4217231-4.6314043l-.3620455-.2784965c-.3690064-.283851-.7559713-.5091506-1.1676101-.6778551l-.4235477-.173585-.0649733-.4531037L9.2504621.8H6.7496473l-.3187209 2.222659-.4235477.173585c-.395245.1619858-.78298.389457-1.1753787.683756l-.3602582.2701936-.4178821-.1678242-1.661839-.6674338-1.2533189 2.168184L2.906077 6.8651904l-.0562547.4500375C2.8166661 7.5804774 2.8 7.7988034 2.8 8c0 .2011966.016666.4195226.0498223.6847722l.0562547.4500375-.357272.2793833-1.4101032 1.1026772 1.2531053 2.1682514 2.085916-.8377173.3620455.2784965c.3690064.283851.7559713.5091506 1.1676101.6778551l.4235477.1735851.0649733.4531036L6.7495379 15.2h2.5008148l.3187209-2.222659.4235477-.1735851c.395245-.1619857.78298-.3894569 1.1753787-.6837559l.3602582-.2701936.4178821.1678242 1.6618603.6674424 1.2534464-2.1680762-1.767524-1.3821871.0562547-.4500375C13.1839988 8.4142034 13.2 8.2061878 13.2 8c0-.2061878-.0160012-.4142034-.0498223-.6847722l-.0562547-.4500375.357272-.2793833 1.4101018-1.1026772-1.2531039-2.1682514-2.085916.8377173zM8 10.8c-1.544 0-2.8-1.256-2.8-2.8 0-1.544 1.256-2.8 2.8-2.8 1.544 0 2.8 1.256 2.8 2.8 0 1.544-1.256 2.8-2.8 2.8zm0-.8c1.1021722 0 2-.8978278 2-2s-.8978278-2-2-2-2 .8978278-2 2 .8978278 2 2 2z" id="settings"/>
</svg>
