<svg width="28" height="28">
  <path fill="#8D8D8D" fill-rule="nonzero" d="M22.167 14.583a4.084 4.084 0 014.077 3.86l.006.224v4.666a.583.583 0 01-1.157.105l-.01-.105v-4.666a2.917 2.917 0 00-2.725-2.91l-.191-.007h-.584a.583.583 0 110-1.167h.584zm-6.5.084a3.5 3.5 0 013.494 3.308l.006.192v5.166a.5.5 0 01-.992.09l-.008-.09v-5.166a2.5 2.5 0 00-2.336-2.495l-.164-.005H5.333a2.5 2.5 0 00-2.494 2.335l-.006.165v5.166a.5.5 0 01-.992.09l-.008-.09v-5.166a3.5 3.5 0 013.308-3.495l.192-.005h10.334zM10.5 3.5a4.667 4.667 0 110 9.333 4.667 4.667 0 010-9.333zm7 0a4.667 4.667 0 010 9.333c-.389 0-.583-.194-.583-.583 0-.389.194-.583.583-.583a3.5 3.5 0 000-7c-.389 0-.583-.195-.583-.584 0-.389.194-.583.583-.583zm-7 1a3.667 3.667 0 100 7.333 3.667 3.667 0 000-7.333z"/>
</svg>
