<svg width="23" height="23" xmlns="http://www.w3.org/2000/svg" xmlns:xlink="http://www.w3.org/1999/xlink">
  <defs>
    <filter id="a">
      <feColorMatrix in="SourceGraphic" values="0 0 0 0 0.470588 0 0 0 0 0.525490 0 0 0 0 0.560784 0 0 0 1.000000 0"/>
    </filter>
    <path d="M11.5.625c1.974 0 3.805.492 5.494 1.477a10.886 10.886 0 013.9 3.918 10.653 10.653 0 011.481 5.48c0 1.969-.493 3.795-1.48 5.48a10.886 10.886 0 01-3.9 3.918 10.724 10.724 0 01-5.495 1.477c-1.974 0-3.805-.492-5.494-1.477a10.886 10.886 0 01-3.9-3.918A10.653 10.653 0 01.624 11.5c0-1.969.493-3.795 1.48-5.48a10.886 10.886 0 013.9-3.918A10.724 10.724 0 0111.5.625zm-.017 4.657c-1.47 0-2.557.32-3.263.961-.706.642-1.06 1.624-1.06 2.947 0 .305.069.875.206 1.71.114.651.239 1.302.375 1.954l.035.214c.022.081.125.208.307.381.182.173.376.32.581.443l.068.03c.638.387.568.436.956.599l.615.55v.58l-.035.519c0 .488-.17.895-.512 1.22-.342.327-.763.49-1.264.49-.808.025-2.17.732-2.859 1.314a9.532 9.532 0 005.867 1.972 9.532 9.532 0 005.938-2.029c-.484-.526-2.552-1.003-3.444-1.032-.546 0-.408-.388-.75-.714a1.617 1.617 0 01-.512-1.221l-.035-.52v-.58l.616-.55c.5-.203.42-.251.92-.598l.069-.03c.205-.102.404-.244.598-.428.193-.183.302-.315.324-.396l.035-.184c.136-.671.261-1.343.375-2.015.137-.814.205-1.374.205-1.68 0-1.322-.358-2.304-1.076-2.946-.717-.64-1.81-.961-3.28-.961zm.017-3.449a9.532 9.532 0 00-4.884 1.313A9.676 9.676 0 003.15 6.629 9.47 9.47 0 001.833 11.5a9.47 9.47 0 001.316 4.871c.385.655.83 1.25 1.333 1.783.253-.194.566-.367.944-.536.96-.441 1.58-.9 3.066-.947.195 0 .317-.047.43-.155.1-.095.138-.185.14-.426l-.037-.54c-.4-.184-.293-.217-.854-.555l-.125-.065a4.493 4.493 0 01-.795-.605c-.34-.322-.537-.567-.639-.932l-.03-.135-.023-.156a60.23 60.23 0 01-.386-2.007c-.147-.897-.22-1.514-.22-1.905 0-1.639.47-2.947 1.455-3.841.959-.871 2.331-1.276 4.075-1.276 1.741 0 3.116.404 4.085 1.27 1 .893 1.48 2.205 1.48 3.847 0 .393-.075 1.001-.222 1.881-.116.685-.244 1.37-.38 2.035l-.058.287c-.103.37-.302.613-.658.95-.267.252-.552.458-.896.632-.478.324-.378.367-.866.58l-.028.615c0 .16.038.25.138.346.107.102-.332.381-.045.382 1.425.045 2.615.28 3.564.715.365.163.665.33.923.538a9.847 9.847 0 001.33-1.78 9.47 9.47 0 001.317-4.871 9.47 9.47 0 00-1.316-4.871 9.676 9.676 0 00-3.467-3.483A9.532 9.532 0 0011.5 1.833z" id="b"/>
  </defs>
  <g transform="translate(-164 -125)" fill="none" fill-rule="evenodd">
    <use xlink:href="#b" transform="translate(164 125)"/>
  </g>
</svg>