<svg width="28" height="28">
  <g fill="none" fill-rule="evenodd">
    <g stroke="#8D8D8D">
    </g>
    <path fill="#8D8D8D" fill-rule="nonzero" d="M23 2.5a.5.5 0 01.09.992L23 3.5H7.123C5.29 3.5 4.5 4.074 4.5 5.273c0 .344.06.65.169.915a2.31 2.31 0 001.88 1.25l.175.007H22a1.5 1.5 0 011.493 1.356l.007.144V24a1.5 1.5 0 01-1.356 1.493L22 25.5H7a3.5 3.5 0 01-3.495-3.308L3.5 22V5.813a.56.56 0 01.012-.119 6.995 6.995 0 01-.012-.421c0-1.769 1.205-2.707 3.386-2.77l.237-.003H23zM4.5 7.67V22a2.5 2.5 0 002.336 2.495L7 24.5h15a.5.5 0 00.492-.41L22.5 24V8.945a.5.5 0 00-.274-.446L10.5 8.5V18c0 .475-.587.668-.875.332l-.054-.075L8.5 16.471l-1.071 1.786c-.245.408-.847.27-.921-.166L6.5 18l.22-9.555A3.296 3.296 0 014.906 7.9 3.148 3.148 0 014.5 7.67zm5 .83h-2v7.694l.571-.951a.5.5 0 01.804-.074l.054.074.571.952V8.5zM21.464 5a.5.5 0 01.09.992l-.09.008H7a.5.5 0 01-.09-.992L7 5h14.464z"/>
  </g>
</svg>
